<?xml version="1.0" encoding="UTF-8"?>
<svg width="120px" height="107px" viewBox="0 0 120 107" version="1.1" xmlns="http://www.w3.org/2000/svg" xmlns:xlink="http://www.w3.org/1999/xlink">
    <!-- Generator: Sketch 41.1 (35376) - http://www.bohemiancoding.com/sketch -->
    <title>Group</title>
    <desc>Created with Sketch.</desc>
    <defs></defs>
    <g id="Adelanto-de-sueldo" stroke="none" stroke-width="1" fill="none" fill-rule="evenodd">
        <g id="Adelanto-de-sueldo01b-Desktop" transform="translate(-660.000000, -221.000000)" fill="#E72599">
            <g id="Group" transform="translate(660.000000, 221.000000)">
                <path d="M5.86800382,72.8922038 C5.70718372,72.7313837 13.1049082,82.2197695 21.6283734,89.4566738 C29.347738,96.3732782 38.0320233,101.518181 42.534986,103.930483 C49.12861,107.468525 57.330435,108.594265 67.6229212,103.448022 C75.8247462,100.553261 105.094004,80.9332087 115.86895,63.8862783 C125.678976,48.127249 115.06485,34.9386608 114.099929,33.8129201 C114.260749,33.8129201 106.863025,24.4853545 98.5003799,17.2484501 C90.6201952,10.1723658 81.9359099,5.02612269 77.5937673,2.77464133 C67.301281,-2.53242189 58.1345355,1.00562026 52.345012,3.25710162 C44.143187,6.15186337 14.8739293,25.6110952 4.09898275,42.8201858 C-5.7110432,58.5792151 5.06390333,71.605643 5.86800382,72.8922038" id="Fill-1"></path>
            </g>
        </g>
    </g>
</svg>