<?xml version="1.0" encoding="UTF-8"?>
<svg width="33px" height="59px" viewBox="0 0 33 59" version="1.1" xmlns="http://www.w3.org/2000/svg" xmlns:xlink="http://www.w3.org/1999/xlink">
    <!-- Generator: Sketch 45 (43475) - http://www.bohemiancoding.com/sketch -->
    <title>celular promocion</title>
    <desc>Created with Sketch.</desc>
    <defs></defs>
    <g id="Productos-home" stroke="none" stroke-width="1" fill="none" fill-rule="evenodd">
        <g id="productos-home-00" transform="translate(-846.000000, -1285.000000)" fill="#9B9B9B">
            <g id="Group" transform="translate(832.000000, 1231.000000)">
                <g id="celular-promocion" transform="translate(14.000000, 54.000000)">
                    <g id="noun_928543_cc">
                        <g id="Group" fill-rule="nonzero">
                            <path d="M31.5348,9.9946 L1.4652,9.9946 C0.8382,9.9946 0.33,9.48916667 0.33,8.86573333 L0.33,7.64377778 C0.33,3.42855556 3.79632,0 8.05662,0 L24.94338,0 C29.20368,0 32.67,3.42855556 32.67,7.64377778 L32.67,8.86573333 C32.67,9.48916667 32.1618,9.9946 31.5348,9.9946 Z M2.59974,7.73752222 L30.3996,7.73752222 L30.3996,7.64377778 C30.3996,4.67345556 27.95166,2.25642222 24.94272,2.25642222 L8.05662,2.25642222 C5.04768,2.25642222 2.59974,4.67345556 2.59974,7.64377778 L2.59974,7.73752222 Z" id="Shape"></path>
                            <path d="M24.94338,59 L8.05662,59 C3.79632,59 0.33,55.5714444 0.33,51.3555667 L0.33,46.5195333 C0.33,45.8967556 0.8382,45.3906667 1.4652,45.3906667 L31.5348,45.3906667 C32.1618,45.3906667 32.67,45.8961 32.67,46.5195333 L32.67,51.3555667 C32.67,55.5714444 29.20368,59 24.94338,59 Z M2.59974,47.6484 L2.59974,51.3555667 C2.59974,54.3265444 5.04768,56.7435778 8.05662,56.7435778 L24.94338,56.7435778 C27.95232,56.7435778 30.40026,54.3265444 30.40026,51.3555667 L30.40026,47.6484 L2.59974,47.6484 Z" id="Shape"></path>
                            <ellipse id="Oval" cx="16.5" cy="51.9409778" rx="2.16942" ry="2.15481111"></ellipse>
                            <path d="M21.8922,4.9973 C21.8922,5.39784444 21.5655,5.72234444 21.1629,5.72234444 L11.83776,5.72234444 C11.43516,5.72234444 11.10846,5.39784444 11.10846,4.9973 L11.10846,4.9973 C11.10846,4.59675556 11.43516,4.27225556 11.83776,4.27225556 L21.1629,4.27225556 C21.5655,4.27225556 21.8922,4.59675556 21.8922,4.9973 L21.8922,4.9973 Z" id="Shape"></path>
                            <path d="M31.5348,47.6484 L1.4652,47.6484 C0.8382,47.6484 0.33,47.1429667 0.33,46.5195333 L0.33,8.86573333 C0.33,8.24295556 0.8382,7.73686667 1.4652,7.73686667 L31.5348,7.73686667 C32.1618,7.73686667 32.67,8.2423 32.67,8.86573333 L32.67,46.5195333 C32.67,47.1423111 32.1618,47.6484 31.5348,47.6484 Z M2.59974,45.3906667 L30.3996,45.3906667 L30.3996,9.9946 L2.59974,9.9946 L2.59974,45.3906667 Z" id="Shape"></path>
                            <polygon id="Shape" points="19.00602 25.7895556 16.5 19.6325778 13.99398 25.7895556 8.3919 25.7895556 12.44562 29.9189 11.48796 35.7526889 16.5 32.9973889 21.5127 35.7526889 20.55438 29.9189 24.6081 25.7895556"></polygon>
                        </g>
                    </g>
                </g>
            </g>
        </g>
    </g>
</svg>