<?xml version="1.0" encoding="UTF-8"?>
<svg width="91px" height="54px" viewBox="0 0 91 54" version="1.1" xmlns="http://www.w3.org/2000/svg" xmlns:xlink="http://www.w3.org/1999/xlink">
    <!-- Generator: Sketch 43.1 (39012) - http://www.bohemiancoding.com/sketch -->
    <title>Group</title>
    <desc>Created with Sketch.</desc>
    <defs></defs>
    <g id="venta-tarjeta-de-credito-desktop" stroke="none" stroke-width="1" fill="none" fill-rule="evenodd">
        <g id="venta-tarjeta-de-credito-desktop-01" transform="translate(-527.000000, -675.000000)" fill="#FF4F10">
            <g id="Group-3" transform="translate(149.000000, 644.000000)">
                <g id="Group" transform="translate(378.000000, 31.000000)">
                    <path d="M45,54 L41.5,50.5 C28.5,39 20,31.25 20,21.75 C20,14 26,8 33.75,8 C38,8 42.25,10 45,13.25 C47.75,10 52,8 56.25,8 C64,8 70,14 70,21.75 C70,31.25 61.5,39 48.5,50.5 L45,54 L45,54 Z" id="Shape"></path>
                    <path d="M65.8175,4.5334332 C68.5612749,1.7085374 72.4894079,0 76.4175408,0 C84.1675408,0 90.1675408,6 90.1675408,13.75 C90.1675408,23.25 81.6675408,31 68.6675408,42.5 L65.1675408,46 L61.6675408,42.5 C61.4436861,42.3019747 61.2211657,42.1050613 61,41.9092317 C69.7704151,33.7788107 75.1675408,27.3199918 75.1675408,19.75 C75.1675408,13.3542764 71.0812693,8.15038196 65.2973782,6.52696875 C65.5076866,5.8754692 65.6817486,5.2103457 65.8175,4.5334332 Z" id="Combined-Shape" fill-opacity="0.3"></path>
                    <path d="M4.81749998,8.5334332 C7.56127491,5.7085374 11.4894079,4 15.4175408,4 C23.1675408,4 29.1675408,10 29.1675408,17.75 C29.1675408,27.25 20.6675408,35 7.6675408,46.5 L4.1675408,50 L0.667540797,46.5 C0.443686075,46.3019747 0.221165669,46.1050613 -2.22044605e-14,45.9092317 C8.77041506,37.7788107 14.1675408,31.3199918 14.1675408,23.75 C14.1675408,17.3542764 10.0812693,12.150382 4.29737823,10.5269688 C4.50768656,9.8754692 4.68174859,9.2103457 4.81749998,8.5334332 Z" id="Combined-Shape" fill-opacity="0.3" transform="translate(14.583770, 27.000000) scale(-1, 1) translate(-14.583770, -27.000000) "></path>
                </g>
            </g>
        </g>
    </g>
</svg>