<?xml version="1.0" encoding="UTF-8"?>
<svg width="51px" height="43px" viewBox="0 0 51 43" version="1.1" xmlns="http://www.w3.org/2000/svg" xmlns:xlink="http://www.w3.org/1999/xlink">
    <!-- Generator: Sketch 45 (43475) - http://www.bohemiancoding.com/sketch -->
    <title>Combined Shape</title>
    <desc>Created with Sketch.</desc>
    <defs></defs>
    <g id="Productos-home" stroke="none" stroke-width="1" fill="none" fill-rule="evenodd">
        <g id="productos-home-00" transform="translate(-1100.000000, -1293.000000)" fill="#9B9B9B">
            <path d="M1140.30732,1295.50135 C1140.30732,1295.50135 1140.66591,1295.00001 1141.38195,1295.00001 C1141.74054,1294.99887 1142.18821,1295.12449 1142.7261,1295.50135 C1144.33748,1296.62966 1146.59638,1298.08001 1148.36878,1300.98187 C1150.14347,1303.88486 1151.27178,1308.23707 1151.27178,1308.88231 C1151.27178,1309.52754 1152.0769,1309.52869 1149.49709,1311.14007 C1147.23476,1312.55502 1130.31814,1322.6584 1126.20918,1325.11373 C1124.56582,1330.64335 1119.44618,1334.67922 1113.38324,1334.67922 C1105.991,1334.67922 1100,1328.68822 1100,1321.29712 C1100,1313.90716 1105.991,1307.91617 1113.38324,1307.91617 C1115.11796,1307.91617 1116.77387,1308.24849 1118.29503,1308.85033 L1140.30732,1295.50135 Z M1102.01908,1321.29712 C1102.01908,1327.57248 1107.10788,1332.659 1113.38324,1332.659 C1119.6586,1332.659 1124.74512,1327.57248 1124.74512,1321.29712 C1124.74512,1315.02176 1119.6586,1309.9341 1113.38324,1309.9341 C1107.10788,1309.9341 1102.01908,1315.02176 1102.01908,1321.29712 Z M1120.27072,1309.98778 C1120.27072,1309.98778 1127.12279,1313.74728 1126.55178,1322.78745 L1149.10652,1309.13127 C1149.10652,1309.13127 1148.2523,1300.08881 1141.00737,1297.46333 L1120.27072,1309.98778 Z M1115.51755,1327.35333 L1109.51513,1318.22065 L1117.08325,1319.78635 L1115.51755,1327.35333 Z" id="Combined-Shape" transform="translate(1125.695342, 1314.839610) rotate(-5.000000) translate(-1125.695342, -1314.839610) "></path>
        </g>
    </g>
</svg>