<?xml version="1.0" encoding="UTF-8"?>
<svg width="16px" height="14px" viewBox="0 0 16 14" version="1.1" xmlns="http://www.w3.org/2000/svg" xmlns:xlink="http://www.w3.org/1999/xlink">
    <!-- Generator: Sketch 44 (41411) - http://www.bohemiancoding.com/sketch -->
    <title>filtro</title>
    <desc>Created with Sketch.</desc>
    <defs></defs>
    <g id="Productos-cuenta-corriente" stroke="none" stroke-width="1" fill="none" fill-rule="evenodd">
        <g id="productos-cuentacorriente03" transform="translate(-260.000000, -766.000000)" fill-rule="nonzero" fill="#9B9B9B">
            <g id="Group" transform="translate(177.000000, 756.000000)">
                <path d="M91.5707151,17.7680456 L91.750393,17.3342649 L91.750393,23.4184928 C91.750393,23.938606 91.1437699,24.2227331 90.7442078,23.8897647 L89.5172906,22.8673337 C89.3774266,22.7507804 89.2965586,22.5781239 89.2965586,22.3960618 L89.2965586,17.2397621 L89.4762365,17.6735428 L83.3164412,11.5137475 C82.6901409,10.8874473 83.0446646,10.0331238 83.9309522,10.0331238 L97.2105022,10.0331238 C98.0952745,10.0331238 98.4514889,10.8872718 97.8250132,11.5137475 L91.5707151,17.7680456 Z M91.1369344,17.3342649 L97.3912325,11.0799668 C97.6305929,10.8406064 97.5496684,10.6465823 97.2105022,10.6465823 L83.9309522,10.6465823 C83.590503,10.6465823 83.5108703,10.8406152 83.7502219,11.0799668 L89.9100172,17.2397621 L89.9100172,22.3960618 L91.1369344,23.4184928 L91.1369344,17.3342649 L91.1369344,17.3342649 Z M91.9578889,14.8270629 C91.8381037,14.7072776 91.8417332,14.5094379 91.9580475,14.3931236 L94.1762506,12.1749204 C94.2961234,12.0550476 94.4939079,12.0584798 94.6101899,12.1747619 C94.7299752,12.2945471 94.7263457,12.4923868 94.6100314,12.6087011 L92.3918282,14.8269043 C92.2719554,14.9467771 92.074171,14.9433449 91.9578889,14.8270629 Z" id="filtro"></path>
            </g>
        </g>
    </g>
</svg>