<?xml version="1.0" encoding="UTF-8"?>
<svg width="115px" height="35px" viewBox="0 0 115 35" version="1.1" xmlns="http://www.w3.org/2000/svg" xmlns:xlink="http://www.w3.org/1999/xlink">
    <!-- Generator: Sketch 41.1 (35376) - http://www.bohemiancoding.com/sketch -->
    <title>logo header</title>
    <desc>Created with Sketch.</desc>
    <defs></defs>
    <g id="Symbols" stroke="none" stroke-width="1" fill="none" fill-rule="evenodd">
        <g id="header" transform="translate(-147.000000, -28.000000)">
            <g id="logo-header" transform="translate(147.000000, 28.000000)">
                <path d="M53.068686,3.76391779 C56.6566091,0.512312001 62.0823461,-0.448830114 66.7107669,0.962266031 C68.4449298,1.45407625 70.4262606,2.38421378 70.8209322,4.279369 C70.8647846,5.84510051 70.1990255,7.34882285 69.9363098,8.88742535 C67.7436901,6.9190218 64.5544251,6.25978683 61.6557819,6.70547773 C58.5263157,7.32556941 56.3097765,9.94545679 55.1456948,12.6971137 C53.8101901,15.9448439 53.1803102,19.6692696 54.3962175,23.0448937 C55.0380571,24.8547863 56.505119,26.4011399 58.4146914,26.9751123 C61.4325334,27.8583554 64.6736239,26.7503291 66.9220557,24.7156532 C66.4755586,26.6801812 66.2562967,28.6954792 65.6941887,30.6293901 C65.1241076,32.2300018 63.2942668,32.8035866 61.7434867,33.0826279 C57.657241,33.8077476 52.9411154,32.9934897 50.0548306,29.8891557 C47.2243579,26.8855866 46.5745452,22.5995903 46.7140755,18.6732473 C46.9293509,13.216828 48.8189904,7.52322364 53.068686,3.76391779 Z M27.2306986,2.51258764 C30.2553471,1.95931959 33.3437564,1.64109236 36.4241956,1.73173415 C39.2456069,1.88437335 42.2782256,2.47295638 44.3703738,4.49022662 C46.8610265,6.8288632 46.9327573,10.9803355 44.92828,13.6368069 C43.7088565,15.2412843 41.9275417,16.4266905 39.9350196,16.8700897 C41.4971569,17.5096833 43.035384,18.4239489 43.8044975,19.9778081 C45.6137076,23.6270229 44.6373718,28.3945455 41.5489625,31.0859395 C39.0981603,33.303328 35.6949325,34.0802576 32.4670467,34.2999952 C30.06008,34.3859283 27.5933376,34.3117669 25.285997,33.578 C24.0586033,33.2087623 23.0822675,32.2164113 22.6837631,31.0274736 C22.0780363,29.2848754 22.317139,27.3939543 22.679778,25.6282052 C24.2299602,17.9295392 25.6605911,10.2069374 27.2306986,2.51258764 Z M30.5064049,19.6795927 C29.976394,21.7906439 29.6655606,23.9527055 29.2072805,26.0794522 C29.0558488,26.9937179 28.5935837,28.0021568 29.2909664,28.8104775 C31.4668006,28.8026297 33.8179767,28.9591928 35.7228278,27.7153207 C38.0102432,26.4051348 38.7634166,22.8771681 36.8665355,20.9509321 C35.1370263,19.4049206 32.6503587,19.7659182 30.5064049,19.6795927 Z M32.8974315,7.24087132 C32.4829869,9.45355113 31.9928264,11.6552441 31.6620677,13.8800879 C31.5544716,14.5039859 32.3196,14.766494 32.8257007,14.676637 C34.8740134,14.7551147 37.1853391,14.5039859 38.6916858,12.9893656 C40.0545709,11.5689185 40.2338979,8.75117538 38.3290468,7.69996609 C36.6792384,6.78923194 34.6986715,7.20555634 32.8974315,7.24087132 Z M74.9167226,2.5286873 C77.0615045,1.86241076 79.3526506,1.81507317 81.5902785,1.72394831 C84.6760885,1.68095001 87.9719169,1.7712859 90.684316,3.38076386 C92.7763906,4.53658995 94.0292027,6.79340941 94.2846304,9.07744799 C95.0022607,14.1500649 92.4118993,19.6175562 87.724598,22.0672764 C84.6395989,23.7832639 80.9942805,23.8779391 77.5399247,23.6574248 C76.976362,26.1702617 76.5997075,28.7221522 76.0077639,31.2270995 C75.7036833,32.5525519 74.8356345,33.8543356 73.4368636,34.2570995 C71.8475356,34.4026626 70.2464499,34.2728787 68.6567164,34.315877 C70.8420424,23.7438159 72.7642373,13.1125828 74.9167226,2.5286873 Z M81.1199671,7.32950759 C80.5203202,10.3985612 79.8955359,13.4640644 79.3400819,16.5370628 C79.1454703,17.1599465 79.6036185,17.7358872 80.1473146,18.0120231 C81.8213797,18.3122223 83.6134281,18.0360864 85.0892327,17.2033393 C87.8746111,15.6021454 89.0463351,11.8545864 87.7691965,8.99815753 C86.4393506,6.74607183 83.3701637,7.13660692 81.1199671,7.32950759 Z M7.65094919,3.71233542 C8.69198265,3.17034556 10.0260478,3.44326244 10.804895,4.30045207 C12.0001557,6.11477273 12.0579908,8.37114185 12.0001557,10.4656828 C11.9615989,12.1650709 11.6762786,13.8563867 11.0747926,15.4477612 C9.04284948,12.8146899 6.40170903,10.6732534 3.43283582,9.16298519 C4.20397172,6.97157797 5.52261411,4.80400293 7.65094919,3.71233542 Z M97.8358209,9.11050299 C98.7753718,6.89804186 100.053465,4.53513338 102.377237,3.58512182 C103.552627,3.13108632 104.788878,3.74672767 105.496775,4.71213027 C106.888984,8.14048307 106.558049,11.9847786 105.466344,15.4477612 C103.355207,12.8539872 100.77962,10.6726929 97.8358209,9.11050299 Z" id="Combined-Shape" fill="#FFFFFF"></path>
                <path d="M10.1714258,3.43283582 C13.1674552,5.41489674 15.5793532,8.22545911 17.5578632,11.281797 C19.1972,13.8227991 19.363018,17.3786164 17.7726728,19.9909727 C15.8318487,23.3838646 12.9752571,26.0798638 10.0545995,28.5213665 C8.40018824,29.8180307 6.41414104,31.3640382 4.22835855,30.7610953 C2.17824531,30.2144429 0.915767493,28.2799514 0,26.4128501 C4.37910217,23.7089226 8.64891521,20.1134641 10.4352271,14.9287891 C11.0231272,13.2872463 11.3020029,11.5434291 11.3396888,9.79089082 C11.3962177,7.63084084 11.3396888,5.30390132 10.1714258,3.43283582" id="Fill-12" fill="#F67D31"></path>
                <path d="M105.997107,5.2036092 C108.812803,6.55520238 110.832671,9.01924005 112.755585,11.3304989 C114.234128,13.0463812 115.195585,15.2497737 114.96532,17.4988462 C114.807771,19.4108842 113.74128,21.1148666 112.52936,22.6004291 C110.109558,25.5638768 107.128233,28.0824235 103.880286,30.1971429 C102.543133,31.014778 100.903001,31.7291532 99.291146,31.2608363 C97.0935298,30.7349395 95.6311455,28.8808654 94.7424037,27.0075979 C99.5214109,24.4928899 103.96512,20.8768695 105.964789,15.9134785 C107.124193,12.4586819 107.47565,8.62385777 105.997107,5.2036092" id="Fill-14" fill="#F67D31"></path>
            </g>
        </g>
    </g>
</svg>