
<svg width="187px" height="55px" viewBox="0 0 187 55" version="1.1" xmlns="http://www.w3.org/2000/svg" xmlns:xlink="http://www.w3.org/1999/xlink">
    <!-- Generator: Sketch 44 (41411) - http://www.bohemiancoding.com/sketch -->
    <desc>Created with Sketch.</desc>
    <defs>
        <radialGradient cx="37.9177243%" cy="55.0706522%" fx="37.9177243%" fy="55.0706522%" r="53.591187%" gradientTransform="translate(0.379177,0.550707),scale(1.000000,0.740741),rotate(90.000000),translate(-0.379177,-0.550707)" id="radialGradient-1">
            <stop stop-color="#0162BC" offset="0%"></stop>
            <stop stop-color="#1F4893" offset="100%"></stop>
        </radialGradient>
        <radialGradient cx="50%" cy="50%" fx="50%" fy="50%" r="100%" gradientTransform="translate(0.500000,0.500000),scale(1.000000,0.741717),rotate(90.000000),translate(-0.500000,-0.500000)" id="radialGradient-2">
            <stop stop-color="#0162BC" offset="0%"></stop>
            <stop stop-color="#093380" offset="100%"></stop>
        </radialGradient>
        <radialGradient cx="37.9177243%" cy="55.0706522%" fx="37.9177243%" fy="55.0706522%" r="53.591187%" gradientTransform="translate(0.379177,0.550707),scale(1.000000,0.747516),rotate(90.000000),translate(-0.379177,-0.550707)" id="radialGradient-3">
            <stop stop-color="#0162BC" offset="0%"></stop>
            <stop stop-color="#1F4893" offset="100%"></stop>
        </radialGradient>
        <radialGradient cx="37.9177243%" cy="55.0706522%" fx="37.9177243%" fy="55.0706522%" r="53.591187%" gradientTransform="translate(0.379177,0.550707),scale(1.000000,0.800910),rotate(90.000000),translate(-0.379177,-0.550707)" id="radialGradient-4">
            <stop stop-color="#0162BC" offset="0%"></stop>
            <stop stop-color="#1F4893" offset="100%"></stop>
        </radialGradient>
        <radialGradient cx="50%" cy="50%" fx="50%" fy="50%" r="100%" gradientTransform="translate(0.500000,0.500000),scale(1.000000,0.724633),rotate(90.000000),translate(-0.500000,-0.500000)" id="radialGradient-5">
            <stop stop-color="#0162BC" offset="0%"></stop>
            <stop stop-color="#093380" offset="100%"></stop>
        </radialGradient>
    </defs>
    <g id="Symbols" stroke="none" stroke-width="1" fill="none" fill-rule="evenodd">
        <g id="login" transform="translate(-111.000000, 0.000000)">
            <g id="Group-7">
                <g id="Group" transform="translate(111.000000, 0.000000)">
                    <g id="Group-3" transform="translate(75.706240, 0.168271)" fill="url(#radialGradient-2)">
                        <path d="M10.9865959,6.0609251 C16.8478157,0.82496081 25.7112824,-0.722737813 33.2722559,1.54950843 C36.1051788,2.34145583 39.3418746,3.83922869 39.9866088,6.8909409 C40.0582459,9.41219188 38.970664,11.8335913 38.5414925,14.3111573 C34.9596359,11.1414955 29.7496628,10.0799489 25.0144485,10.7976318 C19.9021624,11.796147 16.2812311,16.0148739 14.3795909,20.4457853 C12.1979147,25.6755089 11.168945,31.672841 13.1552472,37.1085084 C14.2037543,40.0229247 16.6003419,42.5129721 19.7198133,43.4372228 C24.6497504,44.8594829 29.9443856,43.075261 33.6174166,39.7988829 C32.8880204,42.962304 32.5298347,46.2074785 31.611577,49.3215979 C30.6802943,51.8990154 27.6910722,52.822642 25.1577228,53.2719738 C18.4824447,54.4396126 10.778197,53.1284373 6.06317133,48.1296203 C1.4393202,43.2930621 0.377788175,36.3914496 0.605724499,30.0689759 C0.957397684,21.2826659 4.04430675,12.1144238 10.9865959,6.0609251" id="Fill-1"></path>
                    </g>
                    <path d="M49.8351659,31.0684087 C48.9693418,34.4677716 48.4615653,37.9492754 47.7129204,41.3739125 C47.4655421,42.8461273 46.7103872,44.4699866 47.8496294,45.7716014 C51.4040652,45.7589644 55.244939,46.0110732 58.3566977,44.0081029 C62.0934122,41.8983495 63.3237938,36.2173694 60.225055,33.1156087 C57.3997343,30.6261124 53.337522,31.2074161 49.8351659,31.0684087 M53.7411392,11.0387047 C53.0641039,14.6017174 52.2633793,18.1470382 51.723053,21.7296382 C51.5472842,22.7342826 52.7971957,23.1569915 53.62396,23.0122975 C56.9700772,23.1386678 60.7458514,22.7342826 63.2066146,20.2953345 C65.4330195,18.0080307 65.7259675,13.4707025 62.6142087,11.7779714 C59.9190871,10.3114433 56.6836392,10.9818381 53.7411392,11.0387047 M44.4839824,3.42488985 C49.4250387,2.53397873 54.4702543,2.02154688 59.5024499,2.16750465 C64.1114985,2.41329503 69.0655747,3.36107282 72.4833013,6.60942322 C76.5520236,10.3752603 76.6692028,17.060253 73.3946951,21.33789 C71.4026487,23.9215323 68.4926986,25.8303567 65.2377208,26.5443493 C67.7896234,27.5742679 70.3024662,29.0464827 71.5588876,31.5486161 C74.5144075,37.4248383 72.9194684,45.1018384 67.8742528,49.4357103 C63.8706301,53.0063052 58.3111281,54.2573719 53.038064,54.6112089 C49.1060509,54.7495844 45.0763884,54.6301644 41.3071241,53.4486015 C39.3020578,52.8540289 37.7071187,51.2560755 37.0561231,49.3415644 C36.0666099,46.5355103 36.4572072,43.4906162 37.0496131,40.6472828 C39.5819859,28.2503494 41.9190599,15.8148729 44.4839824,3.42488985" id="Fill-4" fill="url(#radialGradient-3)"></path>
                    <path d="M133.802853,11.1814331 C132.823272,16.123439 131.802626,21.0597279 130.895239,26.0080859 C130.577322,27.0110971 131.325751,27.9385173 132.213931,28.3831708 C134.948679,28.8665726 137.876163,28.4219191 140.287033,27.0809713 C144.837218,24.5026163 146.751343,18.4680333 144.665013,13.8684106 C142.492581,10.2419438 137.478767,10.8708109 133.802853,11.1814331 M123.669253,3.45081465 C127.172962,2.37792932 130.915771,2.30170301 134.571152,2.15496736 C139.612122,2.08572846 144.996177,2.23119367 149.427143,4.82288826 C152.84475,6.68408071 154.891339,10.3181701 155.308605,13.9960896 C156.480924,22.1643742 152.249318,30.9685132 144.592157,34.9132248 C139.552512,37.6764286 133.597532,37.8288812 127.954507,37.4737936 C127.033873,41.5201403 126.418572,45.6293738 125.451574,49.6630161 C124.954829,51.7973528 123.536787,53.8935764 121.25176,54.5421352 C118.655439,54.7765312 116.03991,54.567544 113.442927,54.6367829 C117.012868,37.6129067 120.15296,20.4937475 123.669253,3.45081465" id="Fill-6" fill="url(#radialGradient-4)"></path>
                    <path d="M12.4985662,5.35680809 C14.1991952,4.48405791 16.3785197,4.92352786 17.6508421,6.30383489 C19.603416,9.2253816 19.6978954,12.8587458 19.603416,16.231523 C19.5404298,18.9679971 19.0743315,21.6914729 18.0917459,24.2540159 C14.7723701,20.0140594 10.4578115,16.5657677 5.60786966,14.1338277 C6.86759481,10.6050696 9.02172481,7.11468789 12.4985662,5.35680809" id="Fill-8" fill="url(#radialGradient-5)"></path>
                    <path d="M168.000515,5.35680809 C169.701144,4.48405791 171.880469,4.92352786 173.152791,6.30383489 C175.105365,9.2253816 175.199845,12.8587458 175.105365,16.231523 C175.042379,18.9679971 174.576281,21.6914729 173.593695,24.2540159 C170.274319,20.0140594 165.959761,16.5657677 161.109819,14.1338277 C162.369544,10.6050696 164.523674,7.11468789 168.000515,5.35680809" id="Fill-8-Copy" fill="url(#radialGradient-5)"></path>
                    <path d="M16.6160087,4.90673819 C21.5103129,8.09839206 25.4503817,12.6241572 28.6824693,17.5456875 C31.3604848,21.6373878 31.6313646,27.3632148 29.0333817,31.5698146 C25.8628576,37.0332877 21.1963387,41.3745753 16.4251617,45.3060545 C13.7225207,47.3940345 10.4781204,49.8835245 6.90743305,48.9126234 C3.5583746,48.0323652 1.49599486,44.9173111 0,41.9107731 C7.15368735,37.5567189 14.1288403,31.7670588 17.0469538,23.4183306 C18.0073455,20.7750029 18.462916,17.9669858 18.5244796,15.1449255 C18.6168249,11.6666611 18.5244796,7.91965944 16.6160087,4.90673819" id="Fill-12" fill="#F67D31"></path>
                    <path d="M172.117958,4.90673819 C177.012262,8.09839206 180.952331,12.6241572 184.184418,17.5456875 C186.862434,21.6373878 187.133314,27.3632148 184.535331,31.5698146 C181.364807,37.0332877 176.698288,41.3745753 171.927111,45.3060545 C169.22447,47.3940345 165.980069,49.8835245 162.409382,48.9126234 C159.060324,48.0323652 156.997944,44.9173111 155.501949,41.9107731 C162.655636,37.5567189 169.630789,31.7670588 172.548903,23.4183306 C173.509295,20.7750029 173.964865,17.9669858 174.026429,15.1449255 C174.118774,11.6666611 174.026429,7.91965944 172.117958,4.90673819" id="Fill-12-Copy" fill="#F67D31"></path>
                </g>
            </g>
        </g>
    </g>
</svg>