<?xml version="1.0" encoding="UTF-8"?>
<svg width="34px" height="34px" viewBox="0 0 34 34" version="1.1" xmlns="http://www.w3.org/2000/svg" xmlns:xlink="http://www.w3.org/1999/xlink">
    <!-- Generator: Sketch 46.1 (44463) - http://www.bohemiancoding.com/sketch -->
    <title>Icono calendario</title>
    <desc>Created with Sketch.</desc>
    <defs>
        <rect id="path-1" x="0" y="2.9109463" width="33.6554613" height="32" rx="3"></rect>
    </defs>
    <g id="Page-1" stroke="none" stroke-width="1" fill="none" fill-rule="evenodd">
        <g id="productos-inicio-03" transform="translate(-158.000000, -405.000000)">
            <g id="Icono-calendario" transform="translate(158.000000, 404.000000)">
                <g id="Rectangle">
                    <use fill="#FFFFFF" fill-rule="evenodd" xlink:href="#path-1"></use>
                    <rect stroke="#FF4F10" stroke-width="1" x="0.5" y="3.4109463" width="32.6554613" height="31" rx="3"></rect>
                </g>
                <path d="M9.13739098,6.22459134 C9.13739098,6.8052359 8.68065089,7.24192899 8.06869549,7.24192899 C7.45801235,7.24192899 7,6.8052359 7,6.22459134 L7,1.86975716 C7,1.43427374 7.45801235,1 8.06869549,1 C8.68065089,1 9.13739098,1.43427374 9.13739098,1.86975716 L9.13739098,6.22459134 Z M13.5654799,6.22459134 C13.5654799,6.8052359 13.1074675,7.24192899 12.4967844,7.24192899 C12.038772,7.24192899 11.5794874,6.8052359 11.5794874,6.22459134 L11.5794874,1.86975716 C11.5794874,1.43427374 12.038772,1 12.4967844,1 C13.1074675,1 13.5654799,1.43427374 13.5654799,1.86975716 L13.5654799,6.22459134 Z M17.9922965,6.22459134 C17.9922965,6.8052359 17.5355564,7.24192899 17.0762718,7.24192899 C16.4655886,7.24192899 16.0075763,6.8052359 16.0075763,6.22459134 L16.0075763,1.86975716 C16.0075763,1.43427374 16.4655886,1 17.0762718,1 C17.5355564,1 17.9922965,1.43427374 17.9922965,1.86975716 L17.9922965,6.22459134 Z M22.5731834,6.22459134 C22.5731834,6.8052359 22.115171,7.24192899 21.5044879,7.24192899 C20.8938047,7.24192899 20.4345201,6.8052359 20.4345201,6.22459134 L20.4345201,1.86975716 C20.4345201,1.43427374 20.8938047,1 21.5044879,1 C22.115171,1 22.5731834,1.43427374 22.5731834,1.86975716 L22.5731834,6.22459134 Z M27,6.22459134 C27,6.8052359 26.5432599,7.24192899 25.9313045,7.24192899 C25.4745644,7.24192899 25.0152798,6.8052359 25.0152798,6.22459134 L25.0152798,1.86975716 C25.0152798,1.43427374 25.4745644,1 25.9313045,1 C26.5432599,1 27,1.43427374 27,1.86975716 L27,6.22459134 Z" id="Sueldo-adelantado" fill="#FF4F10" fill-rule="evenodd"></path>
            </g>
        </g>
    </g>
</svg>