<?xml version="1.0" encoding="UTF-8"?>
<svg width="34px" height="22px" viewBox="0 0 34 22" version="1.1" xmlns="http://www.w3.org/2000/svg" xmlns:xlink="http://www.w3.org/1999/xlink">
    <!-- Generator: Sketch 44 (41411) - http://www.bohemiancoding.com/sketch -->
    <title>ojo-visible</title>
    <desc>Created with Sketch.</desc>
    <defs></defs>
    <g id="Symbols" stroke="none" stroke-width="1" fill="none" fill-rule="evenodd">
        <g id="ojo-visible" fill-rule="nonzero" fill="#9B9B9B">
            <path d="M15.5134691,7.16561612 C13.9793851,7.49355982 12.5095721,8.29880388 11.1013861,9.49270071 C10.4600234,10.0364647 9.89192453,10.6207437 9.40550525,11.2038487 C9.34769954,11.2731445 9.29372456,11.3390988 9.24363766,11.4013707 C9.29507681,11.4663824 9.3506477,11.535375 9.41028753,11.6079694 C9.89704713,12.2004595 10.4654794,12.7940755 11.1071189,13.3464434 C12.3654999,14.4297453 13.6725887,15.1977815 15.0306181,15.586222 C13.5362875,14.786839 12.4846154,13.2087147 12.4846154,11.3966104 C12.4846154,9.51544609 13.7803582,7.84981517 15.5134691,7.16561612 Z M19.5659665,7.41823325 C21.0113433,8.1993338 21.9769231,9.6867129 21.9769231,11.3966104 C21.9769231,13.0398276 21.1964746,14.4545176 19.9744708,15.3017871 C21.6747906,14.634518 23.4458256,13.3670988 25.2909657,11.4018679 C23.2983553,9.31309748 21.3912257,8.02556774 19.5659665,7.41823325 Z M27.3922952,10.7308228 C27.7288486,11.1079948 27.7310045,11.6770136 27.3973188,12.056725 C21.0646674,19.2628455 14.9141879,19.2628455 9.80228285,14.862162 C9.06785393,14.2299145 8.42090161,13.5542998 7.86492617,12.8775592 C7.5274424,12.4667695 7.29155215,12.1411282 7.16213695,11.9424909 C6.9445667,11.6085459 6.94607704,11.1772877 7.16598098,10.8448747 C7.2956948,10.6487957 7.53189956,10.3276608 7.86970845,9.92270543 C8.42602421,9.25581051 9.07330995,8.59008942 9.80801561,7.96718679 C14.9181268,3.63470118 21.0603713,3.63470118 27.3922952,10.7308228 Z M20.9769231,11.3966104 C20.9769231,9.43289781 19.3291652,7.83507196 17.2307692,7.83507196 C15.2503624,7.83507196 13.4846154,9.49695146 13.4846154,11.3966104 C13.4846154,13.4546291 15.2239062,15.1427643 17.2307692,15.1427643 C19.3546269,15.1427643 20.9769231,13.520468 20.9769231,11.3966104 Z" id="Combined-Shape" transform="translate(17.323077, 11.438100) scale(-1, 1) translate(-17.323077, -11.438100) "></path>
        </g>
    </g>
</svg>