<?xml version="1.0" encoding="UTF-8"?>
<svg width="23px" height="15px" viewBox="0 0 23 15" version="1.1" xmlns="http://www.w3.org/2000/svg" xmlns:xlink="http://www.w3.org/1999/xlink">
    <!-- Generator: Sketch 44 (41411) - http://www.bohemiancoding.com/sketch -->
    <title>ojo</title>
    <desc>Created with Sketch.</desc>
    <defs></defs>
    <g id="Login" stroke="none" stroke-width="1" fill="none" fill-rule="evenodd">
        <g id="04_b-desktop-Login" transform="translate(-716.000000, -820.000000)" fill="#9B9B9B">
            <g id="ojo" transform="translate(712.000000, 817.000000)">
                <path d="M13.5134691,6.16561612 C11.9793851,6.49355982 10.5095721,7.29880388 9.10138612,8.49270071 C8.46002341,9.03646475 7.89192453,9.62074366 7.40550525,10.2038487 C7.34769954,10.2731445 7.29372456,10.3390988 7.24363766,10.4013707 C7.29507681,10.4663824 7.3506477,10.535375 7.41028753,10.6079694 C7.89704713,11.2004595 8.46547942,11.7940755 9.10711888,12.3464434 C10.3654999,13.4297453 11.6725887,14.1977815 13.0306181,14.586222 C11.5362875,13.786839 10.4846154,12.2087147 10.4846154,10.3966104 C10.4846154,8.51544609 11.7803582,6.84981517 13.5134691,6.16561612 Z M17.5659665,6.41823325 C19.0113433,7.1993338 19.9769231,8.6867129 19.9769231,10.3966104 C19.9769231,12.0398276 19.1964746,13.4545176 17.9744708,14.3017871 C19.6747906,13.634518 21.4458256,12.3670988 23.2909657,10.4018679 C21.2983553,8.31309748 19.3912257,7.02556774 17.5659665,6.41823325 Z M25.3922952,9.7308228 C25.7288486,10.1079948 25.7310045,10.6770136 25.3973188,11.056725 C19.0646674,18.2628455 12.9141879,18.2628455 7.80228285,13.862162 C7.06785393,13.2299145 6.42090161,12.5542998 5.86492617,11.8775592 C5.5274424,11.4667695 5.29155215,11.1411282 5.16213695,10.9424909 C4.9445667,10.6085459 4.94607704,10.1772877 5.16598098,9.84487475 C5.2956948,9.64879572 5.53189956,9.32766076 5.86970845,8.92270543 C6.42602421,8.25581051 7.07330995,7.59008942 7.80801561,6.96718679 C12.9181268,2.63470118 19.0603713,2.63470118 25.3922952,9.7308228 Z M18.9769231,10.3966104 C18.9769231,8.43289781 17.3291652,6.83507196 15.2307692,6.83507196 C13.2503624,6.83507196 11.4846154,8.49695146 11.4846154,10.3966104 C11.4846154,12.4546291 13.2239062,14.1427643 15.2307692,14.1427643 C17.3546269,14.1427643 18.9769231,12.520468 18.9769231,10.3966104 Z" id="Combined-Shape" fill-rule="nonzero" transform="translate(15.323077, 10.438100) scale(-1, 1) translate(-15.323077, -10.438100) "></path>
                <rect id="Rectangle-9" fill-rule="evenodd" transform="translate(15.372462, 10.280105) scale(-1, 1) rotate(-121.000000) translate(-15.372462, -10.280105) " x="14.372462" y="-2.71989484" width="2" height="26" rx="1"></rect>
            </g>
        </g>
    </g>
</svg>