<?xml version="1.0" encoding="UTF-8"?>
<svg width="76px" height="77px" viewBox="0 0 76 77" version="1.1" xmlns="http://www.w3.org/2000/svg" xmlns:xlink="http://www.w3.org/1999/xlink">
    <!-- Generator: Sketch 45 (43475) - http://www.bohemiancoding.com/sketch -->
    <title>plan premium</title>
    <desc>Created with Sketch.</desc>
    <defs>
        <polygon id="path-1" points="0 76.8063377 75.316 76.8063377 75.316 -0.000435849057 0 -0.000435849057"></polygon>
    </defs>
    <g id="SP-4--Solicitud-de-cuenta-de-ahorro" stroke="none" stroke-width="1" fill="none" fill-rule="evenodd" opacity="0.55">
        <g id="D--Solicitud-apertura-cuenta-de-ahorro_00a" transform="translate(-780.000000, -727.000000)">
            <g id="plan-premium" transform="translate(780.000000, 727.000000)">
                <path d="M9.8154,29.4254774 C9.92647692,29.4632509 10.0594769,29.4632509 10.2100154,29.4632509 C11.4479385,29.4632509 12.0120923,28.5857415 12.0120923,27.4089491 C12.0120923,26.3077038 11.5604769,25.450534 10.4160923,25.450534 C10.1910154,25.450534 9.96593846,25.4868547 9.8154,25.5435151 L9.8154,29.4254774 Z M7.35416923,23.7129491 C8.04986154,23.5647604 8.98963077,23.4703264 9.92647692,23.4703264 C11.3924,23.4703264 12.5367846,23.6766283 13.3640154,24.4422698 C14.1137846,25.0960434 14.4528615,26.1406283 14.4528615,27.2041 C14.4528615,28.5668547 14.0407077,29.5184585 13.3815538,30.2288925 C12.5937846,31.0497415 11.3164,31.4231189 10.3035538,31.4231189 L9.8154,31.4231189 L9.8154,36.1084962 L7.35416923,36.1084962 L7.35416923,23.7129491 Z" id="Fill-1" fill="#000000"></path>
                <path d="M18.3977,29.2013057 L18.8288538,29.2013057 C19.8987,29.2013057 20.5183923,28.342683 20.5183923,27.2414377 C20.5183923,26.177966 20.0872385,25.4123245 18.9779308,25.3745509 C18.7733154,25.3745509 18.5292385,25.3934377 18.3977,25.4500981 L18.3977,29.2013057 Z M15.9364692,23.713966 C16.7067,23.5643245 17.6844692,23.4713434 18.6213154,23.4713434 C19.9747,23.4713434 21.1760846,23.6587585 22.0033154,24.4040604 C22.7720846,25.0956075 22.9971615,25.9353434 22.9971615,27.0177019 C22.9971615,28.3615698 22.3394692,29.574683 21.0460077,30.1717962 L21.0460077,30.2095698 C21.9083154,30.5451736 22.3394692,31.3485887 22.5835462,32.6924566 C22.8276231,34.0915321 23.1667,35.6417019 23.3917769,36.1080604 L20.8194692,36.1080604 C20.6689308,35.7535698 20.3868538,34.4837962 20.1997769,33.1036075 C19.9747,31.5345509 19.5800846,31.0870792 18.7543154,31.0870792 L18.3977,31.0870792 L18.3977,36.1080604 L15.9364692,36.1080604 L15.9364692,23.713966 Z" id="Fill-3" fill="#000000"></path>
                <polygon id="Fill-5" fill="#000000" points="30.1170462 30.5832377 27.2246615 30.5832377 27.2246615 33.9799547 30.4926615 33.9799547 30.4926615 36.1083509 24.7648923 36.1083509 24.7648923 23.5268415 30.2675846 23.5268415 30.2675846 25.6552377 27.2246615 25.6552377 27.2246615 28.5478226 30.1170462 28.5478226"></polygon>
                <path d="M39.8997077,31.7026434 C39.8441692,30.508417 39.7491692,28.8841528 39.7871692,27.5402849 L39.7316308,27.5402849 C39.5050923,28.8841528 39.1674769,30.4328698 38.9234,31.4033604 L37.8345538,35.9027755 L36.0894769,35.9027755 L35.0371692,31.4789075 C34.7930923,30.4706434 34.4540154,28.9030396 34.2669385,27.5402849 L34.2099385,27.5402849 C34.1734,28.9030396 34.0974,30.4895302 34.0228615,31.740417 L33.8167846,36.1076245 L31.6946308,36.1076245 L32.6154,23.5275679 L35.2052462,23.5275679 L36.2195538,28.0821906 C36.5776308,29.6686811 36.8947846,31.0677566 37.1213231,32.4871717 L37.1593231,32.4871717 C37.3464,31.0866434 37.6284769,29.6686811 37.9660923,28.0821906 L38.9614,23.5275679 L41.5527077,23.5275679 L42.3229385,36.1076245 L40.1247846,36.1076245 L39.8997077,31.7026434 Z" id="Fill-7" fill="#000000"></path>
                <mask id="mask-2" fill="white">
                    <use xlink:href="#path-1"></use>
                </mask>
                <g id="Clip-10"></g>
                <polygon id="Fill-9" fill="#000000" mask="url(#mask-2)" points="44.1267692 36.1082057 46.588 36.1082057 46.588 23.5266962 44.1267692 23.5266962"></polygon>
                <path d="M51.1709462,23.5268415 L51.1709462,31.701917 C51.1709462,33.549917 51.7351,34.1107094 52.3723308,34.1107094 C53.0870231,34.1107094 53.5927154,33.6065774 53.5927154,31.701917 L53.5927154,23.5268415 L56.0539462,23.5268415 L56.0539462,31.2733321 C56.0539462,34.5029736 54.8321,36.2565396 52.3913308,36.2565396 C49.7430231,36.2565396 48.7097154,34.4463132 48.7097154,31.2922189 L48.7097154,23.5268415 L51.1709462,23.5268415 Z" id="Fill-11" fill="#000000" mask="url(#mask-2)"></path>
                <path d="M65.9120231,31.7026434 C65.8564846,30.508417 65.7614846,28.8841528 65.8009462,27.5402849 L65.7439462,27.5402849 C65.5174077,28.8841528 65.1797923,30.4328698 64.9357154,31.4033604 L63.8468692,35.9027755 L62.1017923,35.9027755 L61.0494846,31.4789075 C60.8054077,30.4706434 60.4663308,28.9030396 60.2792538,27.5402849 L60.2222538,27.5402849 C60.1857154,28.9030396 60.1097154,30.4895302 60.0351769,31.740417 L59.8291,36.1076245 L57.7069462,36.1076245 L58.6277154,23.5275679 L61.2175615,23.5275679 L62.2318692,28.0821906 C62.5899462,29.6686811 62.9071,31.0677566 63.1336385,32.4871717 L63.1716385,32.4871717 C63.3587154,31.0866434 63.6407923,29.6686811 63.9784077,28.0821906 L64.9737154,23.5275679 L67.5650231,23.5275679 L68.3352538,36.1076245 L66.1371,36.1076245 L65.9120231,31.7026434 Z" id="Fill-12" fill="#000000" mask="url(#mask-2)"></path>
                <path d="M28.0561308,15.052483 C28.1365154,15.078634 28.2285923,15.078634 28.3352846,15.078634 C29.2151308,15.078634 29.6126692,14.4568226 29.6126692,13.6228981 C29.6126692,12.8427283 29.2955154,12.2339925 28.4829,12.2339925 C28.3235923,12.2339925 28.1628231,12.2601434 28.0561308,12.2993698 L28.0561308,15.052483 Z M26.3125154,11.0019925 C26.8050538,10.8973887 27.4715154,10.8305585 28.1365154,10.8305585 C29.1756692,10.8305585 29.9868231,10.9758415 30.5729,11.5192 C31.1049,11.9826528 31.3445923,12.7235962 31.3445923,13.4776151 C31.3445923,14.4437472 31.0522846,15.1178604 30.5845923,15.6219925 C30.0277462,16.2031245 29.1215923,16.4689925 28.4025154,16.4689925 L28.0561308,16.4689925 L28.0561308,19.7901623 L26.3125154,19.7901623 L26.3125154,11.0019925 Z" id="Fill-13" fill="#000000" mask="url(#mask-2)"></path>
                <polygon id="Fill-14" fill="#000000" mask="url(#mask-2)" points="32.4007 10.8706566 34.1443154 10.8706566 34.1443154 18.3207698 36.4491615 18.3207698 36.4491615 19.791034 32.4007 19.791034"></polygon>
                <path d="M40.4463231,16.4024528 L40.1540154,14.535566 C40.0590154,13.9936604 39.9391692,13.107434 39.8602462,12.5117736 L39.8193231,12.5117736 C39.7272462,13.107434 39.5942462,14.0343396 39.5021692,14.5500943 L39.1674769,16.4024528 L40.4463231,16.4024528 Z M38.9950154,17.7521321 L38.5945538,19.7904528 L36.9050154,19.7904528 L38.8488615,10.8700755 L40.9388615,10.8700755 L42.6824769,19.7904528 L40.9914769,19.7904528 L40.6056308,17.7521321 L38.9950154,17.7521321 Z" id="Fill-15" fill="#000000" mask="url(#mask-2)"></path>
                <path d="M43.6734,19.7905981 L43.6734,10.8702208 L45.2708615,10.8702208 L46.6564,14.3642774 C46.9224,15.0529189 47.3608615,16.2035604 47.6137077,16.9721075 L47.6414769,16.9721075 C47.5888615,16.0321264 47.4690154,14.4834094 47.4690154,12.8417113 L47.4690154,10.8702208 L48.9992462,10.8702208 L48.9992462,19.7905981 L47.4017846,19.7905981 L46.0294,16.4025981 C45.7370923,15.6485792 45.3249385,14.5240887 45.1247077,13.7163151 L45.0984,13.7163151 C45.1378615,14.615617 45.2050923,15.9929 45.2050923,17.7784283 L45.2050923,19.7905981 L43.6734,19.7905981 Z" id="Fill-16" fill="#000000" mask="url(#mask-2)"></path>
                <path d="M29.0252769,64.8985057 L28.8089692,63.5197698 C28.7402769,63.1187887 28.6511231,62.4635623 28.5926615,62.0233547 L28.5634308,62.0233547 C28.4947385,62.4635623 28.3953538,63.1478453 28.3266615,63.5299396 L28.0811231,64.8985057 L29.0252769,64.8985057 Z M27.9539692,65.8966 L27.6572769,67.4017321 L26.4091231,67.4017321 L27.8443538,60.8116943 L29.3892,60.8116943 L30.6782769,67.4017321 L29.4286615,67.4017321 L29.1436615,65.8966 L27.9539692,65.8966 Z" id="Fill-17" fill="#000000" mask="url(#mask-2)"></path>
                <path d="M31.4030538,67.4012962 L31.4030538,60.8112585 L32.5839769,60.8112585 L33.6055923,63.3929377 C33.8029,63.9014283 34.1259,64.751334 34.3129769,65.3193906 L34.3334385,65.3193906 C34.2954385,64.6249377 34.2048231,63.4815604 34.2048231,62.2684472 L34.2048231,60.8112585 L35.3360538,60.8112585 L35.3360538,67.4012962 L34.1565923,67.4012962 L33.1422846,64.8980698 C32.9274385,64.3416358 32.6219769,63.510617 32.4743615,62.9135038 L32.4553615,62.9135038 C32.4845923,63.5789 32.5328231,64.5958811 32.5328231,65.9150509 L32.5328231,67.4012962 L31.4030538,67.4012962 Z" id="Fill-18" fill="#000000" mask="url(#mask-2)"></path>
                <path d="M37.7230385,60.8116943 L37.7230385,65.0946377 C37.7230385,66.0622226 38.0168077,66.3542415 38.3529615,66.3542415 C38.7271154,66.3542415 38.9916538,66.0912792 38.9916538,65.0946377 L38.9916538,60.8116943 L40.2792692,60.8116943 L40.2792692,64.8694491 C40.2792692,66.5605434 39.6405769,67.4787321 38.3617308,67.4787321 C36.9747308,67.4787321 36.4339615,66.5314868 36.4339615,64.878166 L36.4339615,60.8116943 L37.7230385,60.8116943 Z" id="Fill-19" fill="#000000" mask="url(#mask-2)"></path>
                <path d="M43.4436462,64.8985057 L43.2273385,63.5197698 C43.1586462,63.1187887 43.0694923,62.4635623 43.0110308,62.0233547 L42.9818,62.0233547 C42.9131077,62.4635623 42.8137231,63.1478453 42.7450308,63.5299396 L42.4994923,64.8985057 L43.4436462,64.8985057 Z M42.3723385,65.8966 L42.0756462,67.4017321 L40.8274923,67.4017321 L42.2627231,60.8116943 L43.8075692,60.8116943 L45.0966462,67.4017321 L43.8470308,67.4017321 L43.5620308,65.8966 L42.3723385,65.8966 Z" id="Fill-20" fill="#000000" mask="url(#mask-2)"></path>
                <polygon id="Fill-21" fill="#000000" mask="url(#mask-2)" points="45.8201077 60.8116943 47.1077231 60.8116943 47.1077231 66.3164679 48.8089538 66.3164679 48.8089538 67.4017321 45.8201077 67.4017321"></polygon>
                <path d="M11.7165692,52.3791774 C12.3567231,52.7220453 13.6355692,53.2595925 15.2374154,53.2595925 C17.2075692,53.2595925 18.3884923,52.2571396 18.3884923,50.9844604 C18.3884923,49.5650453 17.2075692,48.8546113 15.1146462,48.8793094 L14.4978769,48.8793094 L15.0152615,46.1872151 L15.5823385,46.1872151 C17.2309538,46.1872151 19.1265692,45.5261774 19.1265692,44.1067623 C19.1265692,43.2989887 18.5361077,42.7120453 17.1578769,42.7120453 C15.8030308,42.7120453 14.5972615,43.0796113 13.8591846,43.4951208 L13.3666462,40.8524226 C14.5475692,40.2146302 16.2473385,39.7758755 17.8725692,39.7758755 C20.5559538,39.7758755 22.8929538,40.9991585 22.8929538,43.5198189 C22.8929538,45.478234 21.3174154,46.9223472 19.3238769,47.4351962 L19.2990308,47.4845925 C20.9739538,47.8274604 22.0818,49.148083 22.0818,50.9597623 C22.0818,54.3128943 18.6603385,56.2219132 15.1628769,56.2219132 C13.1196462,56.2219132 11.3468,55.7323094 10.6335692,55.145366 L11.7165692,52.3791774 Z" id="Fill-22" fill="#000000" mask="url(#mask-2)"></path>
                <path d="M22.3283615,58.8651925 C23.4128231,56.6859472 24.4943615,54.1420415 25.1359769,51.9148528 L28.9769,51.6693245 C27.8427462,54.1667396 26.3417462,56.7353434 24.8889769,58.6443623 L22.3283615,58.8651925 Z" id="Fill-23" fill="#000000" mask="url(#mask-2)"></path>
                <path d="M42.6672769,43.0543321 L37.0301231,43.0543321 L36.2905846,45.5270491 C36.5375846,45.4776528 36.7100462,45.4776528 36.9555846,45.4776528 C37.9888923,45.4776528 39.2706615,45.7217283 40.2791231,46.4568604 C41.3869692,47.2152377 42.0285846,48.5126151 42.0285846,50.0046717 C42.0285846,53.9708981 38.6538923,56.2213321 34.6405077,56.2213321 C32.6966615,56.2213321 31.1211231,55.7811245 30.4795077,55.2915208 L31.3915077,52.4773887 C32.0316615,52.8682 33.3353538,53.2604642 34.6902,53.2604642 C36.4382,53.2604642 38.3338154,52.3306528 38.3338154,50.617766 C38.3338154,49.1983509 37.4481231,48.1697472 34.3701231,48.1697472 C33.6072,48.1697472 33.0649692,48.2191434 32.4014308,48.2670868 L34.7150462,40.0440679 L43.2825846,40.0440679 L42.6672769,43.0543321 Z" id="Fill-24" fill="#000000" mask="url(#mask-2)"></path>
                <path d="M57.9334846,52.4770981 C57.9334846,53.4316075 58.3017923,54.1420415 59.1392538,54.1420415 C60.5920231,54.1420415 61.3067154,51.3758528 61.3067154,49.9811358 C61.3067154,49.1486642 60.9866385,48.3902868 60.1243308,48.3902868 C58.6949462,48.3902868 57.9334846,50.9835887 57.9334846,52.4770981 L57.9334846,52.4770981 Z M64.0134846,50.0043811 C64.0134846,53.5057019 61.7744077,56.1716453 58.8440231,56.1716453 C56.7511,56.1716453 55.2237923,54.7769283 55.2237923,52.4044566 C55.2237923,49.2460038 57.3167154,46.3592302 60.4677923,46.3592302 C62.7097923,46.3592302 64.0134846,47.900683 64.0134846,50.0043811 L64.0134846,50.0043811 Z M47.7158692,45.8696264 C47.7158692,46.7994377 48.0856385,47.533117 48.9216385,47.533117 C50.3744077,47.533117 51.0876385,44.7916264 51.0876385,43.3969094 C51.0876385,42.5644377 50.7690231,41.8060604 49.9067154,41.8060604 C48.4787923,41.8060604 47.7158692,44.376117 47.7158692,45.8696264 L47.7158692,45.8696264 Z M47.4688692,56.2224943 L59.3614077,39.7750038 L61.4528692,39.7750038 L49.5866385,56.2224943 L47.4688692,56.2224943 Z M53.7973308,43.4216075 C53.7973308,46.9214755 51.5567923,49.5656264 48.6497923,49.5656264 C46.5334846,49.5656264 45.0076385,48.1694566 45.0076385,45.7955321 C45.0076385,42.613834 47.1005615,39.7750038 50.2516385,39.7750038 C52.4921769,39.7750038 53.7973308,41.3164566 53.7973308,43.4216075 L53.7973308,43.4216075 Z" id="Fill-25" fill="#000000" mask="url(#mask-2)"></path>
                <path d="M6.35710769,3.41429623 C4.74503077,3.41429623 3.43403077,4.71748491 3.43403077,6.3199566 L3.43403077,70.4871075 C3.43403077,72.0895792 4.74503077,73.3927679 6.35710769,73.3927679 L68.9591846,73.3927679 C70.5712615,73.3927679 71.8822615,72.0895792 71.8822615,70.4871075 L71.8822615,6.3199566 C71.8822615,4.71748491 70.5712615,3.41429623 68.9591846,3.41429623 L6.35710769,3.41429623 Z M68.9591846,76.2984283 L6.35710769,76.2984283 C3.13295385,76.2984283 0.510953846,73.6905981 0.510953846,70.4871075 L0.510953846,6.3199566 C0.510953846,3.11501321 3.13295385,0.508635849 6.35710769,0.508635849 L68.9591846,0.508635849 C72.1833385,0.508635849 74.8053385,3.11501321 74.8053385,6.3199566 L74.8053385,70.4871075 C74.8053385,73.6905981 72.1833385,76.2984283 68.9591846,76.2984283 L68.9591846,76.2984283 Z" id="Fill-26" fill="#000000" mask="url(#mask-2)"></path>
                <path d="M6.35710769,3.92293208 C5.02710769,3.92293208 3.94556923,4.99802642 3.94556923,6.32010189 L3.94556923,70.4858 C3.94556923,71.8078755 5.02710769,72.8829698 6.35710769,72.8829698 L68.9591846,72.8829698 C70.2891846,72.8829698 71.3707231,71.8078755 71.3707231,70.4858 L71.3707231,6.32010189 C71.3707231,4.99802642 70.2891846,3.92293208 68.9591846,3.92293208 L6.35710769,3.92293208 Z M68.9591846,73.9014038 L6.35710769,73.9014038 C4.46295385,73.9014038 2.92249231,72.3686679 2.92249231,70.4858 L2.92249231,6.32010189 C2.92249231,4.43723396 4.46295385,2.90595094 6.35710769,2.90595094 L68.9591846,2.90595094 C70.8533385,2.90595094 72.3938,4.43723396 72.3938,6.32010189 L72.3938,70.4858 C72.3938,72.3686679 70.8533385,73.9014038 68.9591846,73.9014038 L68.9591846,73.9014038 Z M6.35710769,1.0172717 C3.41503077,1.0172717 1.02249231,3.39555472 1.02249231,6.32010189 L1.02249231,70.4858 C1.02249231,73.4103472 3.41503077,75.7886302 6.35710769,75.7886302 L68.9591846,75.7886302 C71.9012615,75.7886302 74.2938,73.4103472 74.2938,70.4858 L74.2938,6.32010189 C74.2938,3.39555472 71.9012615,1.0172717 68.9591846,1.0172717 L6.35710769,1.0172717 Z M68.9591846,76.8070642 L6.35710769,76.8070642 C2.85233846,76.8070642 -0.000584615385,73.9711396 -0.000584615385,70.4858 L-0.000584615385,6.32010189 C-0.000584615385,2.83476226 2.85233846,0.000290566038 6.35710769,0.000290566038 L68.9591846,0.000290566038 C72.4639538,0.000290566038 75.3168769,2.83476226 75.3168769,6.32010189 L75.3168769,70.4858 C75.3168769,73.9711396 72.4639538,76.8070642 68.9591846,76.8070642 L68.9591846,76.8070642 Z" id="Fill-27" fill="#000000" mask="url(#mask-2)"></path>
            </g>
        </g>
    </g>
</svg>