<?xml version="1.0" encoding="UTF-8"?>
<svg width="79px" height="83px" viewBox="0 0 79 83" version="1.1" xmlns="http://www.w3.org/2000/svg" xmlns:xlink="http://www.w3.org/1999/xlink">
    <!-- Generator: Sketch 45 (43475) - http://www.bohemiancoding.com/sketch -->
    <title>plan cuenta sueldo</title>
    <desc>Created with Sketch.</desc>
    <defs>
        <polygon id="path-1" points="30.5580867 0.376973829 30.5580867 30.3675758 15.575112 30.3675758 0.592137245 30.3675758 0.592137245 0.376973829 30.5580867 0.376973829"></polygon>
        <polygon id="path-3" points="0.711932079 0.267881031 5.70586065 0.267881031 5.70586065 15.6193204 0.711932079 15.6193204 0.711932079 0.267881031"></polygon>
        <polygon id="path-5" points="0.705218156 0.267881031 5.69914673 0.267881031 5.69914673 15.6193204 0.705218156 15.6193204 0.705218156 0.267881031"></polygon>
        <polygon id="path-7" points="0.238697895 0.267881031 5.23262647 0.267881031 5.23262647 15.6193204 0.238697895 15.6193204"></polygon>
        <polygon id="path-9" points="0.229011396 0.267881031 5.22293997 0.267881031 5.22293997 15.6193204 0.229011396 15.6193204 0.229011396 0.267881031"></polygon>
        <polygon id="path-11" points="0.119794834 0.267881031 5.11372341 0.267881031 5.11372341 15.6193204 0.119794834 15.6193204"></polygon>
    </defs>
    <g id="SP-4--Solicitud-de-cuenta-de-ahorro" stroke="none" stroke-width="1" fill="none" fill-rule="evenodd" opacity="0.6">
        <g id="D--Solicitud-apertura-cuenta-de-ahorro_00a" transform="translate(-779.000000, -1113.000000)">
            <g id="plan-cuenta-sueldo" transform="translate(779.000000, 1113.000000)">
                <path d="M63.1366337,47.3851598 L61.3530878,47.3851598 L61.3530878,12.0390931 C61.3530878,11.3250312 60.6396695,10.2539383 59.5725145,10.2539383 L5.70942774,10.2539383 C4.9930368,10.2539383 3.92290925,11.3250312 3.92290925,12.0390931 L3.92290925,65.9507705 C3.92290925,67.0218634 4.9930368,67.7359254 5.70942774,67.7359254 L42.0907919,67.7359254 L42.0907919,69.5210803 L39.9505368,69.5210803 C39.9505368,54.8828103 49.9413665,45.2429739 63.1366337,45.2429739 L63.1366337,47.3851598 L61.3530878,47.3851598 L63.1366337,47.3851598 L63.1366337,49.1703146 C52.078649,49.5273456 43.8773104,56.6679651 43.8773104,69.5210803 L43.8773104,71.6632661 L5.70942774,71.6632661 C2.85575427,71.6632661 0.00208080357,68.8070183 0.00208080357,65.9507705 L0.00208080357,12.0390931 C0.00208080357,9.18284533 2.85575427,6.32659752 5.70942774,6.32659752 L59.5725145,6.32659752 C62.4261879,6.32659752 65.2798614,9.18284533 65.2798614,12.0390931 L65.2798614,49.1703146 L63.1366337,49.1703146 L63.1366337,47.3851598" id="Fill-1" fill="#231F20"></path>
                <path d="M31.3904082,45.9570359 C31.033699,47.0281288 30.3202806,47.7421907 29.6068622,48.4562527 C28.8934439,49.1703146 28.1800255,49.5273456 27.109898,49.8843766 C26.0397704,50.2414076 24.9696429,50.5984385 23.8995153,50.5984385 C22.4726786,50.5984385 21.402551,50.2414076 20.6891327,49.8843766 C19.6190051,49.5273456 18.9055867,48.8132837 18.1921684,48.0992217 C17.47875,47.7421907 17.1220408,47.0281288 16.7653316,46.3140668 C16.4086224,45.6000049 16.4086224,44.8859429 16.4086224,44.528912 C16.4086224,43.81485 16.4086224,43.457819 16.7653316,43.1007881 C17.1220408,42.7437571 17.8354592,42.3867261 18.1921684,42.3867261 C18.5488776,42.3867261 18.9055867,42.7437571 19.2622959,42.7437571 C19.2622959,43.1007881 19.6190051,43.1007881 19.6190051,43.457819 C20.3324235,44.8859429 20.6891327,45.9570359 21.402551,46.6710978 C21.7592602,47.0281288 22.8293878,47.3851598 23.8995153,47.3851598 C24.6129337,47.3851598 24.9696429,47.3851598 25.6830612,47.0281288 C26.3964796,46.6710978 26.7531888,46.3140668 27.109898,45.6000049 C27.4666071,45.2429739 27.8233163,44.528912 27.8233163,43.457819 C27.8233163,42.3867261 27.4666071,41.6726641 26.7531888,40.9586022 C26.0397704,40.2445402 24.9696429,39.8875093 23.8995153,39.8875093 L23.1860969,39.8875093 L22.1159694,39.8875093 C21.7592602,39.8875093 21.402551,39.8875093 21.0458418,39.5304783 C20.6891327,39.1734473 20.6891327,38.8164163 20.6891327,38.4593854 C20.6891327,37.7453234 20.6891327,37.3882924 21.0458418,37.3882924 C21.402551,37.0312615 22.1159694,36.6742305 22.8293878,36.6742305 L23.1860969,36.6742305 C24.2562245,36.6742305 24.9696429,36.6742305 25.6830612,35.9601685 C26.3964796,35.2461066 26.7531888,34.5320446 26.7531888,33.4609517 C26.7531888,32.7468897 26.3964796,32.0328278 26.0397704,31.6757968 C25.326352,30.9617349 24.6129337,30.9617349 23.8995153,30.9617349 L22.1159694,30.9617349 C21.7592602,31.3187658 21.402551,31.3187658 21.402551,31.6757968 C21.0458418,32.0328278 20.6891327,32.3898588 20.6891327,32.7468897 C20.3324235,33.1039207 20.3324235,33.8179827 19.9757143,34.1750137 L19.6190051,34.5320446 C19.2622959,34.5320446 18.9055867,34.8890756 18.5488776,34.8890756 C18.1921684,34.8890756 17.8354592,34.5320446 17.47875,34.1750137 C17.1220408,33.8179827 17.1220408,33.4609517 17.1220408,33.1039207 C17.1220408,32.3898588 17.1220408,32.0328278 17.47875,31.3187658 C17.8354592,30.6047039 18.1921684,30.2476729 18.9055867,29.533611 C19.6190051,29.17658 20.3324235,28.819549 21.0458418,28.462518 C22.1159694,28.1054871 23.1860969,27.7484561 24.2562245,27.7484561 C24.9696429,27.7484561 26.0397704,28.1054871 26.7531888,28.462518 C27.4666071,28.462518 28.1800255,28.819549 28.8934439,29.533611 C29.6068622,29.8906419 29.9635714,30.6047039 30.3202806,31.3187658 C30.6769898,32.0328278 30.6769898,32.7468897 30.6769898,33.4609517 C30.6769898,34.5320446 30.3202806,35.2461066 29.9635714,35.9601685 C29.6068622,36.6742305 28.8934439,37.3882924 28.1800255,38.1023544 C28.8934439,38.4593854 29.6068622,38.8164163 30.3202806,39.5304783 C30.6769898,39.8875093 31.033699,40.6015712 31.3904082,41.3156332 C31.7471173,42.0296951 31.7471173,42.7437571 31.7471173,43.457819 C31.7471173,44.528912 31.7471173,45.2429739 31.3904082,45.9570359" id="Fill-3" fill="#231F20"></path>
                <path d="M33.8867779,36.6754206 C33.5300687,36.3183896 33.1733596,35.9613586 33.1733596,35.6043277 C33.1733596,35.2472967 33.5300687,34.8902657 33.8867779,34.5332347 C34.2434871,34.1762038 34.6001963,33.8191728 35.3136147,33.4621418 C36.7404514,33.1051108 37.810579,32.3910489 38.5269699,31.6769869 C39.2374157,30.962925 39.5941249,30.248863 40.3075432,29.5348011 C41.0209616,28.8207391 41.3806434,28.4637081 41.3806434,28.1066772 C41.7373526,28.1066772 42.0910892,27.7496462 42.4477983,27.7496462 C42.8045075,27.7496462 43.5179259,28.1066772 43.5179259,28.4637081 C43.8746351,28.8207391 44.2313443,29.5348011 44.2313443,30.248863 L44.2313443,47.3863499 C44.2313443,49.5285357 43.5179259,50.5996287 42.0910892,50.5996287 C41.3806434,50.5996287 41.0209616,50.2425977 40.6642524,49.8855667 C40.3075432,49.5285357 39.9508341,48.8144738 39.9508341,48.1004118 L39.9508341,34.1762038 C37.4538698,36.3183896 35.6732964,37.3894825 34.9569055,37.3894825 C34.6001963,37.3894825 34.2434871,37.0324516 33.8867779,36.6754206" id="Fill-5" fill="#231F20"></path>
                <g id="Group-9" transform="translate(47.561224, 52.364246)">
                    <mask id="mask-2" fill="white">
                        <use xlink:href="#path-1"></use>
                    </mask>
                    <g id="Clip-8"></g>
                    <path d="M23.0677884,22.5128943 C22.7110792,22.5128943 22.35437,22.1558634 21.9976608,21.7988324 C21.6409517,21.7988324 21.6409517,21.0847704 21.6409517,20.7277395 C21.6409517,20.3707085 21.6409517,20.0136775 21.9976608,19.6566465 C22.35437,19.2996156 22.7110792,18.9425846 23.0677884,18.9425846 C23.7812068,18.9425846 24.1349434,19.2996156 24.4916526,19.6566465 C24.8513343,20.0136775 24.8513343,20.3707085 24.8513343,20.7277395 C24.8513343,21.0847704 24.8513343,21.4418014 24.4916526,21.7988324 C24.1349434,22.1558634 23.7812068,22.5128943 23.0677884,22.5128943 M19.1439874,22.5128943 C18.0708872,22.5128943 17.7171506,21.7988324 17.7171506,21.0847704 L18.0708872,20.0136775 L20.5708241,10.0168102 C20.5708241,9.30274823 20.5708241,8.94571725 20.9275333,8.58868628 C20.9275333,8.58868628 21.2812699,8.2316553 21.6409517,8.2316553 C21.9976608,8.2316553 22.35437,8.2316553 22.7110792,8.58868628 C22.7110792,8.94571725 23.0677884,8.94571725 23.0677884,9.30274823 C23.0677884,9.65977921 23.0677884,10.0168102 22.7110792,10.3738412 L20.2141149,20.7277395 L20.2141149,21.4418014 C19.8574057,21.7988324 19.8574057,21.7988324 19.8574057,22.1558634 C19.5006966,22.1558634 19.1439874,22.5128943 19.1439874,22.5128943 M12.3635403,22.5128943 C10.9396761,22.5128943 9.8695486,22.1558634 8.79942105,21.4418014 C8.44271186,21.0847704 7.72929349,20.7277395 7.37258431,20.0136775 C7.01587513,19.2996156 6.65619337,18.9425846 6.65619337,18.2285226 C6.65619337,17.8714917 7.01587513,17.5144607 7.01587513,17.1574297 C7.37258431,16.8003987 7.72929349,16.8003987 8.08600268,16.8003987 C8.44271186,16.8003987 8.79942105,16.8003987 9.15315765,17.1574297 C9.50986684,17.1574297 9.50986684,17.5144607 9.8695486,17.8714917 C9.8695486,18.2285226 10.2262578,18.5855536 10.2262578,18.9425846 C10.2262578,19.2996156 10.582967,19.2996156 10.9396761,19.6566465 L12.0098037,19.6566465 C12.7232221,19.6566465 13.4366404,19.6566465 13.7933496,19.2996156 C14.1500588,18.9425846 14.506768,18.5855536 14.506768,18.2285226 C14.506768,17.8714917 14.506768,17.5144607 14.1500588,17.5144607 C13.7933496,17.1574297 13.7933496,16.8003987 13.4366404,16.8003987 C12.7232221,16.8003987 12.3635403,16.4433678 11.6530945,16.4433678 C10.582967,16.0863368 9.8695486,15.7293058 9.15315765,15.7293058 C8.44271186,15.3722748 8.08600268,15.0152438 7.72929349,14.3011819 C7.37258431,13.5871199 7.01587513,13.230089 7.01587513,12.158996 C7.01587513,11.4449341 7.37258431,10.7308721 7.72929349,10.0168102 C8.08600268,9.65977921 8.79942105,8.94571725 9.50986684,8.58868628 C10.2262578,8.58868628 11.2963853,8.2316553 12.0098037,8.2316553 C13.0799312,8.2316553 13.7933496,8.2316553 14.506768,8.58868628 C14.8634772,8.94571725 15.573923,8.94571725 15.9336047,9.30274823 C16.2903139,9.65977921 16.6470231,10.3738412 16.6470231,10.7308721 C17.0037323,11.0879031 17.0037323,11.4449341 17.0037323,11.8019651 C17.0037323,12.158996 17.0037323,12.516027 16.6470231,12.873058 C16.2903139,13.230089 15.9336047,13.230089 15.573923,13.230089 C15.2172138,13.230089 14.8634772,13.230089 14.8634772,12.873058 C14.506768,12.873058 14.506768,12.516027 14.1500588,12.158996 C13.7933496,11.8019651 13.7933496,11.4449341 13.4366404,11.0879031 C13.0799312,10.7308721 12.7232221,10.7308721 12.0098037,10.7308721 C11.2963853,10.7308721 10.9396761,11.0879031 10.582967,11.0879031 C10.2262578,11.4449341 10.2262578,11.8019651 10.2262578,12.158996 L10.2262578,12.516027 L10.582967,12.873058 L11.2963853,13.230089 C11.6530945,13.230089 12.0098037,13.230089 12.7232221,13.5871199 C13.4366404,13.5871199 14.1500588,13.9441509 14.506768,13.9441509 C15.2172138,14.3011819 15.9336047,14.6582129 16.2903139,15.0152438 C16.6470231,15.3722748 17.0037323,15.7293058 17.3604415,16.0863368 C17.7171506,16.4433678 17.7171506,17.1574297 17.7171506,17.8714917 C17.7171506,18.5855536 17.3604415,19.6566465 17.0037323,20.3707085 C16.6470231,20.7277395 15.9336047,21.4418014 15.2172138,21.7988324 C14.1500588,22.1558634 13.4366404,22.5128943 12.3635403,22.5128943 M15.573923,0.376973829 C7.37258431,0.376973829 0.592137245,7.16056237 0.592137245,15.3722748 C0.592137245,23.5839873 7.37258431,30.3675758 15.573923,30.3675758 C24.1349434,30.3675758 30.5586812,23.5839873 30.5586812,15.3722748 C30.5586812,7.16056237 24.1349434,0.376973829 15.573923,0.376973829" id="Fill-7" fill="#231F20" mask="url(#mask-2)"></path>
                </g>
                <g id="Group-12" transform="translate(8.917730, 0.346816)">
                    <mask id="mask-4" fill="white">
                        <use xlink:href="#path-3"></use>
                    </mask>
                    <g id="Clip-11"></g>
                    <path d="M3.20889636,15.6193204 C1.82962085,15.6193204 0.711932079,14.5006234 0.711932079,13.1201036 L0.711932079,2.76620529 C0.711932079,1.38568551 1.82962085,0.266988454 3.20889636,0.266988454 C4.58817188,0.266988454 5.70586065,1.38568551 5.70586065,2.76620529 L5.70586065,13.1201036 C5.70586065,14.5006234 4.58817188,15.6193204 3.20889636,15.6193204" id="Fill-10" fill="#231F20" mask="url(#mask-4)"></path>
                </g>
                <g id="Group-15" transform="translate(19.270496, 0.346816)">
                    <mask id="mask-6" fill="white">
                        <use xlink:href="#path-5"></use>
                    </mask>
                    <g id="Clip-14"></g>
                    <path d="M3.20218244,15.6193204 C1.82290693,15.6193204 0.705218156,14.5006234 0.705218156,13.1201036 L0.705218156,2.76620529 C0.705218156,1.38568551 1.82290693,0.266988454 3.20218244,0.266988454 C4.58145795,0.266988454 5.69914673,1.38568551 5.69914673,2.76620529 L5.69914673,13.1201036 C5.69914673,14.5006234 4.58145795,15.6193204 3.20218244,15.6193204" id="Fill-13" fill="#231F20" mask="url(#mask-6)"></path>
                </g>
                <g id="Group-18" transform="translate(29.725765, 0.346816)">
                    <mask id="mask-8" fill="white">
                        <use xlink:href="#path-7"></use>
                    </mask>
                    <g id="Clip-17"></g>
                    <path d="M2.73566218,15.6193204 C1.35638667,15.6193204 0.238697895,14.5006234 0.238697895,13.1201036 L0.238697895,2.76620529 C0.238697895,1.38568551 1.35638667,0.266988454 2.73566218,0.266988454 C4.11493769,0.266988454 5.23262647,1.38568551 5.23262647,2.76620529 L5.23262647,13.1201036 C5.23262647,14.5006234 4.11493769,15.6193204 2.73566218,15.6193204" id="Fill-16" fill="#231F20" mask="url(#mask-8)"></path>
                </g>
                <g id="Group-21" transform="translate(40.078532, 0.346816)">
                    <mask id="mask-10" fill="white">
                        <use xlink:href="#path-9"></use>
                    </mask>
                    <g id="Clip-20"></g>
                    <path d="M2.72597568,15.6193204 C1.34670017,15.6193204 0.229011396,14.5006234 0.229011396,13.1201036 L0.229011396,2.76620529 C0.229011396,1.38568551 1.34670017,0.266988454 2.72597568,0.266988454 C4.10525119,0.266988454 5.22293997,1.38568551 5.22293997,2.76620529 L5.22293997,13.1201036 C5.22293997,14.5006234 4.10525119,15.6193204 2.72597568,15.6193204" id="Fill-19" fill="#231F20" mask="url(#mask-10)"></path>
                </g>
                <g id="Group-24" transform="translate(50.533801, 0.346816)">
                    <mask id="mask-12" fill="white">
                        <use xlink:href="#path-11"></use>
                    </mask>
                    <g id="Clip-23"></g>
                    <path d="M2.61675912,15.6193204 C1.23748361,15.6193204 0.119794834,14.5006234 0.119794834,13.1201036 L0.119794834,2.76620529 C0.119794834,1.38568551 1.23748361,0.266988454 2.61675912,0.266988454 C3.99603463,0.266988454 5.11372341,1.38568551 5.11372341,2.76620529 L5.11372341,13.1201036 C5.11372341,14.5006234 3.99603463,15.6193204 2.61675912,15.6193204" id="Fill-22" fill="#231F20" mask="url(#mask-12)"></path>
                </g>
            </g>
        </g>
    </g>
</svg>