<?xml version="1.0" encoding="UTF-8"?>
<svg width="75px" height="80px" viewBox="0 0 75 80" version="1.1" xmlns="http://www.w3.org/2000/svg" xmlns:xlink="http://www.w3.org/1999/xlink">
    <!-- Generator: Sketch 45 (43475) - http://www.bohemiancoding.com/sketch -->
    <title>plan cuenta premio</title>
    <desc>Created with Sketch.</desc>
    <defs>
        <polygon id="path-1" points="0 79.2371652 74.88 79.2371652 74.88 0.376071429 0 0.376071429"></polygon>
    </defs>
    <g id="SP-4--Solicitud-de-cuenta-de-ahorro" stroke="none" stroke-width="1" fill="none" fill-rule="evenodd" opacity="0.6">
        <g id="D--Solicitud-apertura-cuenta-de-ahorro_00a" transform="translate(-311.000000, -1117.000000)">
            <g id="plan-cuenta-premio" transform="translate(258.000000, 1117.000000)">
                <g transform="translate(53.000000, 0.000000)">
                    <path d="M24.84,32.4777455 L49.677,32.4777455 L24.84,32.4777455 Z" id="Fill-1" fill="#231F20"></path>
                    <polygon id="Fill-2" fill="#231F20" points="24.84 33.3862835 49.677 33.3862835 49.677 31.572236 24.84 31.572236"></polygon>
                    <path d="M62.9991,32.4777455 L67.6791,32.4777455 L62.9991,32.4777455 Z" id="Fill-3" fill="#231F20"></path>
                    <polygon id="Fill-4" fill="#231F20" points="63 33.3862835 67.68 33.3862835 67.68 31.572236 63 31.572236"></polygon>
                    <path d="M7.2009,32.4777455 L11.5179,32.4777455 L7.2009,32.4777455 Z" id="Fill-5" fill="#231F20"></path>
                    <polygon id="Fill-6" fill="#231F20" points="7.2 33.3862835 11.517 33.3862835 11.517 31.572236 7.2 31.572236"></polygon>
                    <g id="Group-23" transform="translate(0.000000, 0.121138)">
                        <g id="Group-9" transform="translate(0.000000, -0.000000)" fill="#231F20">
                            <path d="M57.9606,0.376374275 C57.6006,0.376374275 57.2406,0.376374275 56.8806,0.739789453 C55.4406,1.10320463 47.5206,4.37394124 42.8406,6.55443231 C41.3976,5.46418677 39.6006,5.1007716 37.4406,5.1007716 C34.9176,5.1007716 33.1206,5.46418677 31.6806,6.55443231 C27.0006,4.37394124 19.0806,1.10320463 17.6406,0.739789453 C17.2776,0.376374275 16.9176,0.376374275 16.5606,0.376374275 C15.1206,0.376374275 13.3206,1.46661981 11.8806,2.92028052 C10.8006,4.37394124 7.9176,8.3715082 8.2776,16.3666421 L7.2006,16.3666421 C3.2406,16.3666421 0.0006,19.6373787 0.0006,23.6349457 L0.0006,27.6325127 C0.0006,30.5398341 1.4406,32.7203252 3.6006,34.1739859 L3.6006,73.05941 C3.6006,76.3301466 6.4806,79.237468 9.7206,79.237468 L64.8006,79.237468 C68.0376,79.237468 70.9176,76.3301466 70.9176,73.05941 L70.9176,34.1739859 C73.0806,32.7203252 74.8806,30.5398341 74.8806,27.6325127 L74.8806,23.6349457 C74.8806,19.6373787 71.6406,16.3666421 67.6806,16.3666421 L66.2406,16.3666421 C66.6006,8.3715082 63.7206,4.37394124 62.6406,2.92028052 C61.2006,1.46661981 59.3976,0.376374275 57.9606,0.376374275 M57.9606,4.01052606 C59.7606,4.01052606 64.0806,8.73492338 62.6406,19.6373787 L67.6806,19.6373787 C69.4806,19.6373787 71.2776,21.4544546 71.2776,23.6349457 L71.2776,27.6325127 C71.2776,29.8130037 69.4806,31.6300796 67.6806,31.6300796 L67.6806,73.05941 C67.6806,74.5130707 66.2406,75.9667314 64.8006,75.9667314 L9.7206,75.9667314 C8.2776,75.9667314 7.2006,74.5130707 7.2006,73.05941 L7.2006,31.6300796 C5.0376,31.6300796 3.2406,29.8130037 3.2406,27.6325127 L3.2406,23.6349457 C3.2406,21.4544546 5.0376,19.6373787 7.2006,19.6373787 L11.8806,19.6373787 C10.4406,8.73492338 14.7606,4.01052606 16.5606,4.01052606 L16.9176,4.01052606 C18.3606,4.37394124 32.3976,10.1885841 32.3976,10.1885841 C32.3976,10.1885841 33.8406,8.3715082 37.4406,8.3715082 C40.6806,8.3715082 42.4806,10.1885841 42.4806,10.1885841 C42.4806,10.1885841 56.1576,4.37394124 57.6006,4.01052606 L57.9606,4.01052606" id="Fill-7"></path>
                        </g>
                        <path d="M7.3794,38.5219456 L7.3794,49.3335472 L35.3514,19.4547626 L24.5184,19.4547626 L7.3794,38.5219456 Z M5.5794,53.9034931 L5.5794,37.8223714 L5.8134,37.5619239 L23.7204,17.6376867 L39.5304,17.6376867 L5.5794,53.9034931 Z" id="Fill-10" fill="#231F20"></path>
                        <path d="M39.5298,19.4550655 L67.4988,49.3338501 L67.4988,38.5283054 L50.0058,19.4550655 L39.5298,19.4550655 Z M69.2988,53.9037959 L35.3508,17.6379896 L50.7918,17.6379896 L69.2988,37.8135889 L69.2988,53.9037959 Z" id="Fill-12" fill="#231F20"></path>
                        <path d="M11.5191,18.5471332 L62.9991,18.5471332" id="Fill-14" fill="#231F20"></path>
                        <mask id="mask-2" fill="white">
                            <use xlink:href="#path-1"></use>
                        </mask>
                        <g id="Clip-17"></g>
                        <polygon id="Fill-16" fill="#231F20" mask="url(#mask-2)" points="11.52 19.4553683 63 19.4553683 63 17.6382924 11.52 17.6382924"></polygon>
                        <path d="M30.24,18.9108512 C28.803,16.0035298 29.16,12.0059628 32.04,9.46205658" id="Fill-18" fill="#231F20" mask="url(#mask-2)"></path>
                        <path d="M29.4342,19.3160592 C27.6582,15.7243058 28.4862,11.3936083 31.4472,8.78004743 L32.6292,10.1458828 C29.8962,12.5625937 29.8902,16.1725179 31.0452,18.5044319 L29.4342,19.3160592 Z" id="Fill-19" fill="#231F20" mask="url(#mask-2)"></path>
                        <path d="M44.2788,18.9108512 C45.7188,16.0035298 45.3588,12.0059628 42.8418,9.46205658" id="Fill-20" fill="#231F20" mask="url(#mask-2)"></path>
                        <path d="M45.0846,19.3175734 L43.4736,18.5029177 C44.8356,15.7561046 44.3016,12.221892 42.2046,10.1049986 L43.4766,8.82093164 C46.1076,11.4738624 46.7826,15.8893569 45.0846,19.3175734" id="Fill-21" fill="#231F20" mask="url(#mask-2)"></path>
                        <path d="M38.5191,61.7929338 L38.5191,57.0685364 C39.5991,57.4319516 41.0391,57.7953668 41.0391,59.6124427 C41.0391,61.0661034 39.9591,61.7929338 38.5191,61.7929338 L38.5191,61.7929338 Z M36.3591,49.8002329 C35.2791,49.8002329 34.2021,48.7099873 34.2021,47.2563266 C34.2021,46.1660811 35.2791,45.4392507 36.3591,45.4392507 L36.3591,49.8002329 Z M38.5191,50.5270632 L38.5191,45.4392507 C41.0391,46.1660811 41.7591,48.7099873 43.2021,48.7099873 C44.6391,48.7099873 45.3591,47.6197418 45.3591,46.1660811 C45.3591,42.5319293 40.6821,40.7148534 38.5191,40.7148534 L38.5191,40.3514382 C38.5191,39.2611927 38.1591,38.5343623 37.4421,38.5343623 C37.0821,38.5343623 36.3591,39.2611927 36.3591,40.3514382 L36.3591,40.7148534 C33.1191,40.7148534 29.5191,43.2587597 29.5191,48.3465722 C29.5191,53.0709695 31.6821,54.5246302 36.3591,56.3417061 L36.3591,61.7929338 C33.4791,61.0661034 33.4791,57.4319516 31.3221,57.4319516 C30.2391,57.4319516 29.1591,58.5221972 29.1591,60.339273 C29.1591,63.2465945 31.6821,66.5173311 36.3591,66.5173311 L36.3591,68.6978222 C36.3591,69.7880677 37.0821,70.1514829 37.4421,70.1514829 C38.1591,70.1514829 38.5191,69.7880677 38.5191,68.6978222 L38.5191,66.5173311 C42.1191,66.5173311 45.7191,63.9734248 45.7191,58.8856123 C45.7191,54.5246302 43.5621,51.9807239 38.5191,50.5270632 L38.5191,50.5270632 Z" id="Fill-22" fill="#231F20" mask="url(#mask-2)"></path>
                    </g>
                </g>
            </g>
        </g>
    </g>
</svg>