<?xml version="1.0" encoding="UTF-8"?>
<svg width="52px" height="69px" viewBox="0 0 52 69" version="1.1" xmlns="http://www.w3.org/2000/svg" xmlns:xlink="http://www.w3.org/1999/xlink">
    <!-- Generator: Sketch 45 (43475) - http://www.bohemiancoding.com/sketch -->
    <title>plan libre2</title>
    <desc>Created with Sketch.</desc>
    <defs>
        <polygon id="path-1" points="51.4578035 0.606571634 0 0.606571634 0 68.752067 51.4578035 68.752067"></polygon>
    </defs>
    <g id="Page-1" stroke="none" stroke-width="1" fill="none" fill-rule="evenodd" opacity="0.6">
        <g id="Artboard" transform="translate(-50.000000, -33.000000)">
            <g id="plan-libre2" transform="translate(50.000000, 32.000000)">
                <g id="SP-4--Solicitud-de-cuenta-de-ahorro">
                    <g id="D--Solicitud-apertura-cuenta-de-ahorro_00a">
                        <g id="plan-libre">
                            <g id="Group-3" transform="translate(0.000000, 0.502334)">
                                <g id="Fill-1-Clipped">
                                    <mask id="mask-2" fill="white">
                                        <use xlink:href="#path-1"></use>
                                    </mask>
                                    <g id="path-1"></g>
                                    <path d="M13.4097608,1.53572405 L0.935486811,13.616147 L-0.000111646594,14.8547952 L-0.000111646594,62.5566086 C-0.000111646594,65.9642771 2.80668372,68.752067 6.23758356,68.752067 L45.2201083,68.752067 C48.6510081,68.752067 51.4578035,65.9642771 51.4578035,62.5566086 L51.4578035,6.8019191 C51.4578035,3.39425067 48.9636186,0.606460743 45.8442128,0.606460743 L14.3464757,0.606460743 L13.4097608,1.53572405 Z M15.9050621,4.01412917 L45.8442128,4.01412917 C46.7798112,4.01412917 48.0269037,5.25277728 48.0269037,6.8019191 L48.0269037,62.5566086 C48.0269037,64.1057505 46.7798112,65.0350138 45.2201083,65.0350138 L6.23758356,65.0350138 C4.67788064,65.0350138 3.74228218,64.1057505 3.74228218,62.5566086 L3.74228218,16.403937 L15.9050621,4.01412917 L15.9050621,4.01412917 Z" id="Fill-1" fill="#231F20" fill-rule="nonzero" mask="url(#mask-2)"></path>
                                </g>
                            </g>
                            <path d="M3.38532366,17.680177 L13.3189863,17.680177 C15.1122774,17.680177 16.6841321,15.9733459 16.6841321,14.0252826 L16.6841321,4.17117746 L15.0824466,4.17117746 L15.0824466,14.0252826 C15.0824466,15.1893415 14.1358917,16.0916862 13.3189863,16.0916862 L3.38532366,16.0916862 L3.38532366,17.680177 Z" id="Fill-4" fill="#231F20" fill-rule="nonzero"></path>
                            <path d="M34.7092514,43.0500633 C36.2812354,42.8105396 36.817139,42.1984234 37.3642074,41.0008048 C37.4367776,40.8411224 37.5819182,40.7246872 37.7527375,40.6880933 C37.9291391,40.6503905 38.1055407,40.6969646 38.2384002,40.810073 C39.0746332,41.5297531 40.2670188,41.8402468 41.3544566,41.6240101 C42.4396615,41.4066645 43.4176857,40.657044 43.9078142,39.6701175 C43.9971315,39.4882569 43.9837339,39.0934864 43.9122801,38.9404573 C43.8854849,38.9293683 43.8609227,38.9182792 43.8352439,38.9071901 C43.5829226,38.7951906 43.4511797,38.5168552 43.5248664,38.2518266 C43.5985532,37.987907 43.8598062,37.8215711 44.1322239,37.8504026 C44.2550351,37.8659273 44.3711476,37.904739 44.4760954,37.96462 C45.2788344,38.2207773 46.4488907,38.0211742 47.1076056,37.2061282 C47.848939,36.2890628 47.784184,35.3342947 47.6758868,34.8874055 C45.6160071,35.2356021 43.8955331,35.224513 42.146031,34.8563562 C38.7285287,34.137785 35.4304884,32.6596132 31.7673636,30.2033862 C30.0803836,29.072302 28.4079176,27.8713567 26.7912749,26.7092231 C26.0622227,26.1858194 25.3342869,25.6624157 24.6030017,25.1445566 C23.6473068,24.467015 22.8456843,23.923651 21.9335316,23.5920881 C21.3507364,23.380287 20.2186399,23.0952981 19.1859089,23.5588209 C18.9570334,23.6619491 18.7370896,23.8005624 18.5316599,23.9713339 C17.9161175,24.4841252 17.4801982,25.2545519 17.1687693,25.9638657 C17.0458153,26.2439072 27.2462291,37.6090282 27.1586914,37.8504026 M26.1569824,36.7587891 C25.777384,36.3518206 16.066054,25.6839795 16.2456805,25.2994507 C16.6048455,24.5305817 17.1052467,23.7118015 17.8160052,23.1196941 C18.0995876,22.8857149 18.4043828,22.6938741 18.725925,22.5486074 C19.7620054,22.0839758 21.0370095,22.0839758 22.3175959,22.5508252 C23.4429936,22.9589027 24.44558,23.6708204 25.2505519,24.241907 C25.98407,24.7608751 26.7142388,25.2864966 27.445524,25.8110092 C29.0554678,26.9675982 30.7201186,28.162999 32.3903516,29.284103 C35.9317816,31.6571621 39.1047778,33.0832153 42.3771394,33.7707371 C44.0909146,34.1311316 45.783477,34.1167158 47.8701518,33.7263809 C47.9706338,33.7097473 48.3111559,33.6786979 48.5489631,34.0745774 C48.8872523,34.634575 49.2121439,36.3755575 47.9773326,37.9014123 C47.2974048,38.7397453 46.1519108,39.1988324 45.0823364,39.1777632 C45.1001999,39.5270686 45.0432601,39.888572 44.9092842,40.1591451 C44.2706657,41.4488029 42.9934286,42.4268581 41.5755169,42.710738 C40.3875971,42.9480439 39.1025448,42.7029757 38.0753962,42.0642458 C37.459107,43.1554094 36.6128258,43.8817429 34.8789542,44.1456625" id="Fill-8" fill="#231F20" fill-rule="nonzero"></path>
                            <path d="M12.8853567,25.024573 L12.8965214,25.024573 L12.8853567,25.024573 Z M27.330193,47.9345729 C27.3424741,47.9345729 27.3558717,47.9356818 27.3692693,47.9367907 C27.5456709,47.9489887 27.7042091,48.0421368 27.7991087,48.1896213 C28.4265626,49.1621319 29.5352133,49.8285845 30.6929884,49.9294949 C31.8585789,50.034841 33.0587798,49.5646648 33.8458882,48.7152428 C33.9954947,48.5533425 34.1049083,48.1319582 34.0736473,47.956751 C34.049085,47.9378996 34.0245228,47.9179393 33.9999605,47.8968701 C33.7900649,47.7183362 33.7420569,47.413387 33.8883139,47.1805167 C34.034571,46.9476465 34.3315509,46.8567162 34.5861052,46.9676068 C34.7022176,47.0175075 34.803816,47.0884775 34.8886674,47.1782989 C35.625535,47.6750889 36.8659286,47.8214645 37.7769648,47.1927147 C38.8007641,46.4874504 39.0184749,45.477237 39.0430372,45.0004074 C36.8715109,44.74425 35.1521534,44.2286087 33.5109485,43.3470284 C30.3078077,41.6282239 27.4518878,39.183086 24.5189318,35.6545468 C23.1657751,34.0266726 21.8472288,32.3300463 20.5733412,30.6910831 C20.0028271,29.9569873 19.432313,29.2240003 18.8584495,28.4932312 C18.2321121,27.7003634 17.5231562,26.8010405 16.645614,26.1556572 C16.1219915,25.7697579 15.0758629,25.1520972 13.8879431,25.3106707 C13.6266901,25.3483735 13.3643206,25.4226702 13.1075334,25.5324519 C12.0312603,25.9981925 11.155951,27.0693958 10.5910192,27.834541 C8.73991867,30.3451044 7.40015954,33.077449 6.60858519,35.9572781 C6.02690643,38.0675264 5.76230401,40.2520715 5.82036023,42.4499233 C5.8281755,42.7781595 5.84492249,43.1185937 5.94652089,43.4013648 C7.54753304,42.371191 8.74438453,40.8497718 10.0238545,39.1165516 C10.0238545,39.1165516 10.024971,39.1154427 10.024971,39.1154427 C10.2080714,38.8681566 10.5564087,38.8149292 10.8064971,38.9956808 C10.9862481,39.1265318 11.0632843,39.3449863 11.024208,39.549025 C11.0777983,39.7952021 11.3680795,40.4450211 11.8850032,41.485175 C11.973204,41.6614911 12.0390755,41.7956687 12.0681036,41.8599853 C12.4197904,42.6473086 12.8373487,43.4568101 13.3464571,44.3350637 C15.0680476,47.3036053 16.7527947,47.7504945 17.3969956,47.8048309 C17.89159,47.8480782 18.2633731,47.7039204 18.3906502,47.5520003 C18.612827,47.2858628 18.7412206,46.2778672 18.5826824,46.0516503 L18.5826824,46.0505414 C18.4040478,45.8010376 18.464337,45.4550588 18.7155418,45.2787428 C18.9656302,45.1024267 19.3139676,45.1589809 19.4937186,45.4107026 C19.4948351,45.4118115 19.4948351,45.4129204 19.4959515,45.4129204 C19.6868672,45.6823846 19.8766664,45.9618289 20.0675821,46.2434911 C21.0489556,47.6950492 22.0649397,49.196508 23.6212932,49.4060913 C25.2703134,49.6278725 26.019462,49.1488251 26.9070524,48.1264136 C27.0131167,48.004434 27.1683055,47.9345729 27.330193,47.9345729 L27.330193,47.9345729 Z M31.0022495,51.0517079 C30.8649242,51.0517079 30.7298318,51.0461634 30.5947394,51.0339654 C29.3353658,50.9241837 28.1206509,50.2965429 27.2844179,49.3495371 C26.347703,50.2677113 25.2859439,50.7467587 23.4705703,50.5050172 C21.7076706,50.2677113 20.5677588,48.9159548 19.6053652,47.5409112 C19.5126985,47.838098 19.3876543,48.0931464 19.2492126,48.2594824 C18.8517507,48.736312 18.1171161,48.9802713 17.302096,48.9104102 C16.2849955,48.8239156 14.2932202,48.1874035 12.3784812,44.8884078 C11.8503928,43.9757781 11.4149711,43.1330095 11.0476538,42.3102012 C11.021975,42.252538 10.9616859,42.1338851 10.8835333,41.9775293 C10.614465,41.4352743 10.4090352,41.0061276 10.2571959,40.6623667 C9.10723596,42.1616077 7.93941259,43.4667902 6.35849682,44.4071426 C6.25689842,44.4670235 6.04365342,44.591221 5.77458513,44.5779141 C5.43294655,44.5590627 5.13931601,44.331737 4.96738026,43.9536 C4.74632,43.4656813 4.71617542,42.9566934 4.7038943,42.4787549 C4.64360513,40.1722302 4.92160515,37.8801213 5.53119556,35.6645269 C6.35849682,32.6538469 7.75854511,29.7995226 9.69114765,27.1791775 C10.3867059,26.2366073 11.3535654,25.0822361 12.66318,24.516694 C13.0104009,24.3658827 13.3721358,24.2638634 13.7349873,24.2128537 C14.8994613,24.0531712 16.171116,24.4257637 17.3110277,25.2640967 C18.3091482,25.9993014 19.1007226,27.0039703 19.7371082,27.8101451 C20.3132046,28.5420231 20.8848352,29.2772278 21.4575822,30.0135415 C22.7258875,31.6458512 24.0388514,33.3347152 25.379727,34.9492825 C28.2177834,38.3636044 30.969872,40.7222476 34.0412698,42.3722999 C35.6478643,43.2339199 37.3493584,43.7185119 39.5588445,43.9402931 C39.687238,43.9536 39.998732,44.0312234 40.1126116,44.4692413 C40.2823144,45.1234959 40.0913987,46.9476465 38.4133504,48.1031266 C37.4822178,48.7462921 36.2116796,48.8738163 35.1331735,48.5211842 C35.0516715,48.8804698 34.885318,49.2308841 34.6687236,49.4659722 C33.7442898,50.4639877 32.3676873,51.0517079 31.0022495,51.0517079 L31.0022495,51.0517079 Z" id="Fill-12" fill="#231F20" fill-rule="nonzero"></path>
                        </g>
                    </g>
                </g>
            </g>
        </g>
    </g>
</svg>