<?xml version="1.0" encoding="UTF-8"?>
<svg width="40px" height="42px" viewBox="0 0 40 42" version="1.1" xmlns="http://www.w3.org/2000/svg" xmlns:xlink="http://www.w3.org/1999/xlink">
    <!-- Generator: Sketch 46.1 (44463) - http://www.bohemiancoding.com/sketch -->
    <title>Path</title>
    <desc>Created with Sketch.</desc>
    <defs></defs>
    <g id="Page-1" stroke="none" stroke-width="1" fill="none" fill-rule="evenodd">
        <g id="productos-inicio-03" transform="translate(-1000.000000, -401.000000)" fill="#FF4F10">
            <g id="Path" transform="translate(970.000000, 373.000000)">
                <path d="M30.294981,0.127939168 C29.6866965,0.127939168 28.7742697,0.433319998 28.1659852,1.34946249 L24.5162781,5.31941328 L19.0417175,4.40327079 L18.7375752,4.40327079 C17.5210062,4.40327079 16.3044372,5.31941328 16.0002949,6.54348144 L14.1754414,11.7324107 L9.00502296,12.953934 C7.48431167,13.2593149 6.5718849,14.4808382 6.5718849,16.0077423 L7.18016942,21.5045973 L2.61803555,24.8637864 C1.40146651,25.4745481 1.09732426,27.0014522 1.70560877,28.2229755 L4.13874684,33.4144496 L1.40146651,37.9951621 C0.489039739,39.2166854 0.793181997,40.7435895 2.00975103,41.659732 L5.96360038,45.324302 L5.05117361,50.8211569 C5.05117361,52.0426803 5.65945813,53.5695844 7.18016942,53.8749652 L12.3505878,55.7072502 L13.5671568,61.2041052 C13.8712991,62.4256285 15.0878681,63.341771 16.3044372,63.341771 L16.6085794,63.341771 L22.0831401,63.0363901 L25.4287049,67.3117218 C25.7328472,68.2278642 26.6452739,68.5332451 27.5577007,68.5332451 C28.1659852,68.5332451 28.4701275,68.5332451 28.7742697,68.2278642 L33.9446881,65.7848176 L38.506822,68.8386259 C39.1151065,68.8386259 39.4192488,69.1440067 40.0275333,69.1440067 C40.9399601,69.1440067 41.5482446,68.8386259 42.1565291,68.2278642 L45.8062362,63.9525326 L51.2807968,64.8686751 L51.5849391,64.8686751 C52.8015081,64.8686751 54.0180772,63.9525326 54.3222194,63.0363901 L56.147073,57.5395352 L61.6216336,56.3180119 C62.8382026,56.012631 63.7506294,54.7911077 63.7506294,53.2642036 L63.4464872,47.7673486 L67.7044788,44.7160852 C68.9210478,43.7973978 69.2251901,42.2704937 68.6169055,41.0489704 L66.1837675,36.1628771 L69.2251901,31.2767838 C69.8334746,30.0552605 69.5293323,28.5283564 68.6169055,27.6122139 L64.3589139,23.9476439 L65.2713407,18.450789 C65.575483,17.2292656 64.6630562,15.7023615 63.4464872,15.3969807 L57.9719265,13.5646957 L56.7553575,8.37322158 C56.4512152,6.84631743 55.2346462,5.93017494 54.0180772,5.93017494 L53.7139349,5.93017494 L48.2393743,6.54348144 L45.1979517,1.96022415 C44.5896672,1.34946249 43.6772404,0.738700828 42.7648136,0.738700828 C42.4606713,0.738700828 41.8523868,0.738700828 41.5482446,1.04408166 L36.6819684,3.4871283 L31.8156923,0.738700828 C31.5115501,0.433319998 30.9032655,0.127939168 30.294981,0.127939168"></path>
            </g>
        </g>
    </g>
</svg>