<?xml version="1.0" encoding="UTF-8"?>
<svg width="68px" height="38px" viewBox="0 0 68 38" version="1.1" xmlns="http://www.w3.org/2000/svg" xmlns:xlink="http://www.w3.org/1999/xlink">
    <!-- Generator: Sketch 45 (43475) - http://www.bohemiancoding.com/sketch -->
    <title>tarjeta desbloqueada</title>
    <desc>Created with Sketch.</desc>
    <defs>
        <polygon id="path-1" points="5.77625122 16.95043 6.84640098 18 7.93155503 16.9653551 23.4608891 2.15884302 21.3210194 8.8817842e-16 6.90264703 13.7971785 2.17073791 9.15626764 0 11.2852606"></polygon>
    </defs>
    <g id="SP-4---Bloqueo-de-tarjetas" stroke="none" stroke-width="1" fill="none" fill-rule="evenodd">
        <g id="Tarjeta-segura-a-05" transform="translate(-176.000000, -320.000000)">
            <g id="tarjeta-desbloqueada" transform="translate(176.000000, 320.000000)">
                <g id="Tarjeta" fill="#9B9B9B">
                    <path d="M49.4467723,0.729166667 C51.6281584,0.729166667 53.5671683,2.44551282 53.5671683,4.65224359 L53.5671683,30.6426282 C53.5671683,32.849359 51.6281584,34.5657051 49.4467723,34.5657051 L3.8780198,34.5657051 C1.69663366,34.5657051 0,32.849359 0,30.6426282 L0,4.65224359 C0,2.44551282 1.69663366,0.729166667 3.8780198,0.729166667 L49.4467723,0.729166667 Z M49.9315248,10.2360176 L49.9315248,6.22678303 C49.9315248,4.76473463 49.204396,3.67351763 48.2328713,3.67351763 L5.33429703,3.67351763 C4.36277228,3.67351763 3.39326733,4.76473463 3.39326733,6.22678303 L3.39326733,10.2360176 L49.9315248,10.2360176 Z M49.9315248,29.5524133 L49.9315248,13.8541667 L3.39326733,13.8541667 L3.39326733,29.5524133 C3.39326733,30.7345325 4.36277228,31.6254407 5.33429703,31.6254407 L48.2328713,31.6254407 C49.204396,31.6254407 49.9315248,30.7345325 49.9315248,29.5524133 Z M7.75664554,26.9647436 L7.75664554,25.7387821 L27.3911406,25.7387821 L27.3911406,26.9647436 L7.75664554,26.9647436 Z M27.3911406,21.5725561 L27.3911406,23.0416667 L7.75664554,23.0416667 L7.75664554,21.5725561 L27.3911406,21.5725561 Z"></path>
                </g>
                <g id="Group-3" transform="translate(41.000000, 17.000000)" fill-rule="nonzero">
                    <g id="Selected-Copy">
                        <use fill="#9B9B9B" fill-rule="evenodd" xlink:href="#path-1"></use>
                        <path stroke="#FFFFFF" stroke-width="2" d="M6.91121247,12.4048979 L21.3395427,-1.40180949 L24.8888868,2.17900519 L6.83658389,19.3910531 L-1.4281457,11.2852606 L2.17073791,7.75558627 L6.91121247,12.4048979 Z"></path>
                    </g>
                </g>
            </g>
        </g>
    </g>
</svg>