<?xml version="1.0" encoding="UTF-8"?>
<svg width="29px" height="29px" viewBox="0 0 29 29" version="1.1" xmlns="http://www.w3.org/2000/svg" xmlns:xlink="http://www.w3.org/1999/xlink">
    <!-- Generator: Sketch 44 (41411) - http://www.bohemiancoding.com/sketch -->
    <title>telefono</title>
    <desc>Created with Sketch.</desc>
    <defs></defs>
    <g id="Symbols" stroke="none" stroke-width="1" fill="none" fill-rule="evenodd">
        <g id="importante" transform="translate(-750.000000, -104.000000)" fill-rule="nonzero" fill="#9B9B9B">
            <g id="Group-7" transform="translate(750.000000, 102.000000)">
                <path d="M22.8980581,19.9644664 C22.304355,19.3462806 21.5882388,19.0157655 20.8292781,19.0157655 C20.076438,19.0157655 19.3542012,19.34016 18.7360155,19.9583457 L16.8018898,21.8863508 C16.6427528,21.8006617 16.4836159,21.7210932 16.3305996,21.6415247 C16.1102562,21.531353 15.9021541,21.4273019 15.7246552,21.3171302 C13.9129425,20.1664479 12.2664874,18.6668884 10.6873595,16.726642 C9.92227812,15.7595792 9.40814345,14.9455326 9.03478374,14.1192447 C9.53667711,13.6601959 10.0018466,13.1827851 10.4547748,12.7237363 C10.626153,12.5523581 10.7975312,12.3748592 10.9689094,12.203481 C12.2542461,10.9181443 12.2542461,9.25332725 10.9689094,7.96799056 L9.29797173,6.29705286 C9.10823155,6.10731268 8.91237072,5.91145185 8.72875119,5.71559102 C8.36151214,5.33611066 7.97591113,4.944389 7.57806882,4.57714994 C6.98436568,3.98956746 6.27437017,3.67741426 5.52765076,3.67741426 C4.78093134,3.67741426 4.05869453,3.98956746 3.44662944,4.57714994 C3.44050879,4.5832706 3.44050879,4.5832706 3.43438814,4.58939125 L1.35336682,6.68877451 C0.569923506,7.47221783 0.123115988,8.42703938 0.0251855732,9.5348772 C-0.121710049,11.3221073 0.404665931,12.9869243 0.808628892,14.0764002 C1.80017434,16.7511246 3.28137187,19.2299883 5.49092685,21.8863508 C8.17177196,25.0874512 11.397355,27.61528 15.0819869,29.3963895 C16.4897366,30.0635404 18.3687764,30.8531044 20.4681597,30.9877587 C20.5966933,30.9938793 20.7313477,31 20.8537607,31 C22.267631,31 23.4550373,30.491986 24.3853763,29.4820786 C24.3914969,29.4698373 24.4037382,29.4637166 24.4098589,29.4514753 C24.7281327,29.0658743 25.0953718,28.7169972 25.4809728,28.3436375 C25.7441608,28.0926908 26.0134694,27.8295028 26.2766574,27.5540735 C26.8826018,26.9236465 27.2008757,26.1891684 27.2008757,25.4363283 C27.2008757,24.6773676 26.8764812,23.9490101 26.2582954,23.336945 L22.8980581,19.9644664 Z M25.0892511,26.4095118 C25.0831305,26.4095118 25.0831305,26.4156325 25.0892511,26.4095118 C24.8505457,26.6665791 24.6057197,26.8991639 24.3425317,27.1562312 C23.9446894,27.5357116 23.5407264,27.9335539 23.1612461,28.3803614 C22.5430603,29.0413917 21.8147029,29.3535449 20.8598813,29.3535449 C20.7680716,29.3535449 20.6701412,29.3535449 20.5783314,29.3474242 C18.7604981,29.2311319 17.0711984,28.5211364 15.8042237,27.9151919 C12.3399352,26.2381336 9.29797173,23.8572004 6.7701429,20.8397195 C4.68300093,18.3241319 3.28749252,15.9982846 2.36327423,13.501059 C1.79405369,11.9770169 1.58595156,10.7896106 1.67776132,9.66953152 C1.73896783,8.95341536 2.01439712,8.35971222 2.52241115,7.85169819 L4.60955312,5.76455622 C4.90946501,5.48300628 5.22773886,5.32999001 5.53989206,5.32999001 C5.92549307,5.32999001 6.23764626,5.56257474 6.43350709,5.75843557 C6.43962775,5.76455622 6.4457484,5.77067688 6.45186905,5.77679753 C6.82522875,6.12567463 7.18022651,6.48679303 7.55358621,6.87239404 C7.74332639,7.06825487 7.93918722,7.2641157 8.13504805,7.46609718 L9.80598576,9.13703489 C10.4547748,9.78582388 10.4547748,10.3856477 9.80598576,11.0344367 C9.62848688,11.2119356 9.45710865,11.3894344 9.27960978,11.5608127 C8.7654751,12.0871886 8.27582302,12.5768407 7.74332639,13.0542515 C7.73108509,13.0664928 7.71884379,13.0726134 7.71272314,13.0848547 C7.18634716,13.6112307 7.28427757,14.1253654 7.39444929,14.4742425 C7.40056994,14.4926044 7.40669059,14.5109664 7.41281124,14.5293284 C7.84737746,15.5820803 8.45944255,16.5736258 9.38978149,17.7549114 L9.39590214,17.761032 C11.0852018,19.8420534 12.8663112,21.4640259 14.8310402,22.706518 C15.0819869,22.8656549 15.3390542,22.9941886 15.5838802,23.1166016 C15.8042237,23.2267733 16.0123258,23.3308244 16.1898247,23.4409961 C16.2143073,23.4532374 16.2387899,23.4715994 16.2632725,23.4838407 C16.4713746,23.5878917 16.6672354,23.6368569 16.8692169,23.6368569 C17.377231,23.6368569 17.6955048,23.3185831 17.7995559,23.214532 L19.8928185,21.1212694 C20.1009206,20.9131673 20.4314358,20.6622206 20.8170368,20.6622206 C21.1965171,20.6622206 21.5086703,20.900926 21.6984105,21.1090281 C21.7045312,21.1151488 21.7045312,21.1151488 21.7106518,21.1212694 L25.0831305,24.4937481 C25.7135575,25.1180545 25.7135575,25.7607228 25.0892511,26.4095118 Z M15.6512074,8.8983295 C15.1982792,8.82488169 14.904488,8.39031547 14.9840564,7.94350796 C15.0636249,7.49670044 15.4859498,7.19678854 15.938878,7.27023635 C17.8791243,7.6007515 19.6479924,8.51884914 21.0496215,9.9204782 C22.4512506,11.3221073 23.3693482,13.0909754 23.6998634,15.0312217 C23.7733112,15.4841499 23.4733993,15.9125955 23.0204711,15.9860433 C22.9715059,15.9921639 22.9286613,15.9982846 22.8796961,15.9982846 C22.4818538,15.9982846 22.1329767,15.7167346 22.0656496,15.3127717 C21.7902203,13.7091611 21.0373802,12.2524462 19.8744565,11.0895225 C18.7115329,9.92659886 17.2548179,9.16763814 15.6512074,8.8983295 Z M28.9452612,14.7925163 C29.0248297,15.2393239 28.7187971,15.6677694 28.2719896,15.7350966 C28.2230244,15.7412172 28.1801798,15.7473379 28.1312146,15.7473379 C27.7333723,15.7473379 27.3844952,15.4657879 27.3171681,15.061825 C26.8336366,12.2096017 25.4870934,9.60832501 23.4183134,7.53954499 C21.3495334,5.47688563 18.7482568,4.12422178 15.8960334,3.64069035 C15.4431053,3.56112189 15.1431934,3.13879698 15.2166412,2.68586881 C15.2962096,2.23906129 15.7185346,1.93302874 16.1653421,2.01259721 C19.3603219,2.55733514 22.267631,4.06301527 24.5812371,6.37662132 C26.8948431,8.69022737 28.4005233,11.5975366 28.9452612,14.7925163 Z" id="telefono"></path>
            </g>
        </g>
    </g>
</svg>