<?xml version="1.0" encoding="UTF-8"?>
<svg width="24px" height="16px" viewBox="0 0 24 16" version="1.1" xmlns="http://www.w3.org/2000/svg" xmlns:xlink="http://www.w3.org/1999/xlink">
    <!-- Generator: Sketch 43.1 (39012) - http://www.bohemiancoding.com/sketch -->
    <title>Group</title>
    <desc>Created with Sketch.</desc>
    <defs></defs>
    <g id="Page-1" stroke="none" stroke-width="1" fill="none" fill-rule="evenodd">
        <g id="Group" transform="translate(12.000000, 7.500000) rotate(-360.000000) translate(-12.000000, -7.500000) translate(-1.000000, -1.000000)" fill="#000000">
            <path d="M11.1227635,4.49392641 C9.52276833,4.84149549 7.98980548,5.69492838 6.5211174,6.96027248 C5.85219883,7.53657739 5.25969184,8.15582174 4.75237378,8.77382202 C4.69208448,8.84726471 4.63579049,8.91716599 4.58355162,8.98316443 C4.63720083,9.05206667 4.6951593,9.12518803 4.75736153,9.20212673 C5.26503453,9.83007373 5.85788926,10.4592139 6.52709646,11.0446376 C7.83954322,12.1927683 9.20279047,13.0067667 10.619167,13.4184529 C9.06063316,12.5712319 7.96377649,10.8986666 7.96377649,8.97811927 C7.96377649,6.98437902 9.3151903,5.2190705 11.1227635,4.49392641 Z M15.3493746,4.76166109 C16.8568514,5.58950563 17.8639168,7.16589508 17.8639168,8.97811927 C17.8639168,10.7196727 17.0499367,12.219023 15.7754301,13.1169963 C17.5488034,12.4097954 19.3959301,11.066529 21.3203457,8.98369137 C19.2421238,6.76992111 17.2530552,5.40534077 15.3493746,4.76166109 Z M23.5119579,8.27248842 C23.8629712,8.67223181 23.8652198,9.27530285 23.5171973,9.67773762 C16.9124665,17.3150994 10.4977345,17.3150994 5.16619875,12.6510625 C4.40021543,11.9809789 3.7254671,11.2649328 3.14560443,10.5476935 C2.79362082,10.1123207 2.54759566,9.76719177 2.41262019,9.55666729 C2.18570214,9.20273773 2.18727736,8.74567144 2.41662937,8.39336567 C2.55191629,8.18555254 2.79826948,7.84519966 3.15059217,7.41601028 C3.73080979,6.70920587 4.40590586,6.00364554 5.17217782,5.34346607 C10.5018426,0.751708283 16.9079858,0.751708283 23.5119579,8.27248842 Z M16.8209523,8.97811927 C16.8209523,6.89689074 15.1023992,5.203445 12.9138467,5.203445 C10.8483525,5.203445 9.00674103,6.9647776 9.00674103,8.97811927 C9.00674103,11.1592975 10.8207596,12.948457 12.9138467,12.948457 C15.1289549,12.948457 16.8209523,11.2290765 16.8209523,8.97811927 Z" id="Combined-Shape" fill-rule="nonzero" transform="translate(13.010120, 9.022091) scale(-1, 1) translate(-13.010120, -9.022091) "></path>
            <rect id="Rectangle-9" transform="translate(13.061627, 8.854642) scale(-1, 1) rotate(-121.000000) translate(-13.061627, -8.854642) " x="12.0186627" y="-4.92332684" width="2.08592909" height="27.5559375" rx="1.04296454"></rect>
        </g>
    </g>
</svg>