<?xml version="1.0" encoding="UTF-8"?>
<svg width="38px" height="41px" viewBox="0 0 38 41" version="1.1" xmlns="http://www.w3.org/2000/svg" xmlns:xlink="http://www.w3.org/1999/xlink">
    <!-- Generator: Sketch 44 (41411) - http://www.bohemiancoding.com/sketch -->
    <title>agua</title>
    <desc>Created with Sketch.</desc>
    <defs></defs>
    <g id="Symbols" stroke="none" stroke-width="1" fill="none" fill-rule="evenodd">
        <g id="aguas-bot" transform="translate(-30.000000, -12.000000)" fill-rule="nonzero" fill="#9B9B9B">
            <g id="agua" transform="translate(30.000000, 12.000000)">
                <path d="M7.40385198,28.0886444 L5.81054446,25.0027111 C5.25188124,26.0832889 4.70439128,27.1711556 4.13410786,28.2449 C2.82862364,30.7017111 0.587713712,32.6911222 0.587713712,35.6763778 C0.587266781,38.6119778 2.93052381,41 5.81009753,41 C8.68967126,41 11.0329283,38.6119778 11.0329283,35.6763778 C11.0329283,32.636 8.70620769,30.6065 7.40385198,28.0886444 Z M5.81009753,38.7222222 C4.16226449,38.7222222 2.82191968,37.3560111 2.82191968,35.6763778 C2.82191968,34.2491222 3.44360011,33.3676222 4.38528285,32.0314778 C4.82819105,31.4041778 5.31758003,30.7108222 5.81009753,29.8525556 C6.30261503,30.7099111 6.79200402,31.4037222 7.23491222,32.0314778 C8.17659495,33.3658 8.79872232,34.2473 8.79872232,35.6763778 C8.79827539,37.3560111 7.45793058,38.7222222 5.81009753,38.7222222 Z" id="Shape"></path>
                <path d="M35.9779116,0 L33.7432587,0 C31.6654785,0 29.9188738,1.45504444 29.4209931,3.41666667 L13.6313827,3.41666667 C6.85412737,3.41666667 1.34079174,9.0364 1.34079174,15.9444444 L1.34079174,17.0833333 C0.723580608,17.0833333 0.22346529,17.5931 0.22346529,18.2222222 L0.22346529,22.7777778 C0.22346529,23.4069 0.723580608,23.9166667 1.34079174,23.9166667 L10.2794033,23.9166667 C10.8966145,23.9166667 11.3967298,23.4069 11.3967298,22.7777778 L11.3967298,18.2222222 C11.3967298,17.5931 10.8966145,17.0833333 10.2794033,17.0833333 L10.2794033,15.9444444 C10.2794033,14.0602667 11.7828778,12.5277778 13.6313827,12.5277778 L29.4209931,12.5277778 C29.9188738,14.4894 31.6650316,15.9444444 33.7432587,15.9444444 L35.9779116,15.9444444 C36.5951228,15.9444444 37.0952381,15.4346778 37.0952381,14.8055556 L37.0952381,1.13888889 C37.0952381,0.509766667 36.5951228,0 35.9779116,0 Z M9.16207688,21.6388889 L2.45811819,21.6388889 L2.45811819,19.3611111 L9.16207688,19.3611111 L9.16207688,21.6388889 Z M8.04475043,15.9444444 L8.04475043,17.0833333 L3.57544464,17.0833333 L3.57544464,15.9444444 C3.57544464,10.2923667 8.08631497,5.69444444 13.6313827,5.69444444 L29.273953,5.69444444 L29.273953,10.25 L13.6313827,10.25 C10.5506902,10.25 8.04475043,12.8043 8.04475043,15.9444444 Z M34.8605852,13.6666667 L33.7432587,13.6666667 C32.5110711,13.6666667 31.5086059,12.6448556 31.5086059,11.3888889 L31.5086059,4.55555556 C31.5086059,3.29958889 32.5110711,2.27777778 33.7432587,2.27777778 L34.8605852,2.27777778 L34.8605852,13.6666667 Z" id="Shape"></path>
            </g>
        </g>
    </g>
</svg>