<?xml version="1.0" encoding="UTF-8"?>
<svg width="30px" height="43px" viewBox="0 0 30 43" version="1.1" xmlns="http://www.w3.org/2000/svg" xmlns:xlink="http://www.w3.org/1999/xlink">
    <!-- Generator: Sketch 44 (41411) - http://www.bohemiancoding.com/sketch -->
    <title>comunicaciones</title>
    <desc>Created with Sketch.</desc>
    <defs></defs>
    <g id="Symbols" stroke="none" stroke-width="1" fill="none" fill-rule="evenodd">
        <g id="comunicaciones---bot-copy" transform="translate(-34.000000, -10.000000)" fill-rule="nonzero" fill="#AAAAAA">
            <g id="comunicaciones" transform="translate(34.000000, 10.000000)">
                <g id="Group">
                    <path d="M28.0395833,41.7458333 L16.4833333,14.9604167 C18.275,14.4229167 19.61875,12.7208333 19.61875,10.75 C19.61875,8.33125 17.6479167,6.36041667 15.2291667,6.36041667 C12.8104167,6.36041667 10.8395833,8.33125 10.8395833,10.75 C10.8395833,12.7208333 12.1833333,14.4229167 13.975,14.9604167 L2.41875,41.7458333 C2.23958333,42.19375 2.41875,42.73125 2.86666667,42.9104167 C3.31458333,43.0895833 3.85208333,42.9104167 4.03125,42.4625 L5.10625,39.8645833 C5.19583333,39.8645833 5.375,39.8645833 5.46458333,39.775 L15.2291667,35.3854167 L24.9041667,39.775 C24.99375,39.775 25.0833333,39.8645833 25.1729167,39.8645833 L26.2479167,42.4625 C26.4270833,42.8208333 26.6958333,43 27.0541667,43 C27.14375,43 27.3229167,43 27.4125,42.9104167 C27.95,42.73125 28.21875,42.19375 28.0395833,41.7458333 Z M20.8729167,29.7416667 L17.46875,28.21875 L19.7979167,27.14375 L20.8729167,29.7416667 Z M12.63125,10.75 C12.63125,9.31666667 13.7958333,8.15208333 15.2291667,8.15208333 C16.6625,8.15208333 17.8270833,9.31666667 17.8270833,10.75 C17.8270833,12.1833333 16.6625,13.3479167 15.2291667,13.3479167 C13.7958333,13.3479167 12.63125,12.1833333 12.63125,10.75 Z M15.2291667,16.4833333 L19.08125,25.4416667 L15.2291667,27.14375 L11.3770833,25.4416667 L15.2291667,16.4833333 Z M10.6604167,27.0541667 L13.0791667,28.1291667 L9.58541667,29.7416667 L10.6604167,27.0541667 Z M6.18125,37.5354167 L8.42083333,32.3395833 L13.0791667,34.4 L6.18125,37.5354167 Z M10.48125,31.2645833 L15.31875,29.1145833 L20.15625,31.2645833 L15.2291667,33.5041667 L10.48125,31.2645833 Z M17.46875,34.4895833 L22.0375,32.4291667 L24.2770833,37.5354167 L17.46875,34.4895833 Z" id="Shape"></path>
                    <path d="M19.61875,15.1395833 C19.2604167,15.4979167 19.2604167,16.0354167 19.61875,16.39375 C19.7979167,16.5729167 20.0666667,16.6625 20.2458333,16.6625 C20.5145833,16.6625 20.69375,16.5729167 20.8729167,16.39375 C24.0083333,13.2583333 24.0083333,8.15208333 20.8729167,5.01666667 C20.5145833,4.65833333 19.9770833,4.65833333 19.61875,5.01666667 C19.2604167,5.375 19.2604167,5.9125 19.61875,6.27083333 C22.0375,8.77916667 22.0375,12.7208333 19.61875,15.1395833 Z" id="Shape"></path>
                    <path d="M9.58541667,16.39375 C9.76458333,16.5729167 10.0333333,16.6625 10.2125,16.6625 C10.48125,16.6625 10.6604167,16.5729167 10.8395833,16.39375 C11.1979167,16.0354167 11.1979167,15.4979167 10.8395833,15.1395833 C9.675,13.975 9.04791667,12.3625 9.04791667,10.75 C9.04791667,9.1375 9.675,7.525 10.8395833,6.36041667 C11.1979167,6.00208333 11.1979167,5.46458333 10.8395833,5.10625 C10.48125,4.74791667 9.94375,4.74791667 9.58541667,5.10625 C8.0625,6.53958333 7.16666667,8.6 7.16666667,10.75 C7.16666667,12.9 8.0625,14.8708333 9.58541667,16.39375 Z" id="Shape"></path>
                    <path d="M22.1270833,17.5583333 C21.76875,17.9166667 21.76875,18.4541667 22.1270833,18.8125 C22.30625,18.9916667 22.575,19.08125 22.7541667,19.08125 C23.0229167,19.08125 23.2020833,18.9916667 23.38125,18.8125 C27.8604167,14.3333333 27.8604167,7.07708333 23.38125,2.59791667 C23.0229167,2.23958333 22.4854167,2.23958333 22.1270833,2.59791667 C21.76875,2.95625 21.76875,3.49375 22.1270833,3.85208333 C25.8895833,7.61458333 25.8895833,13.7958333 22.1270833,17.5583333 Z" id="Shape"></path>
                    <path d="M7.07708333,18.8125 C7.25625,18.9916667 7.525,19.08125 7.70416667,19.08125 C7.97291667,19.08125 8.15208333,18.9916667 8.33125,18.8125 C8.68958333,18.4541667 8.68958333,17.9166667 8.33125,17.5583333 C6.53958333,15.7666667 5.46458333,13.2583333 5.46458333,10.6604167 C5.46458333,8.0625 6.45,5.64375 8.33125,3.7625 C8.68958333,3.40416667 8.68958333,2.86666667 8.33125,2.50833333 C7.97291667,2.15 7.43541667,2.15 7.07708333,2.50833333 C4.92708333,4.65833333 3.67291667,7.525 3.67291667,10.6604167 C3.7625,13.7958333 4.92708333,16.6625 7.07708333,18.8125 Z" id="Shape"></path>
                    <path d="M28.21875,10.75 C28.21875,14.24375 26.875,17.46875 24.3666667,19.9770833 C24.0083333,20.3354167 24.0083333,20.8729167 24.3666667,21.23125 C24.5458333,21.4104167 24.8145833,21.5 24.99375,21.5 C25.2625,21.5 25.4416667,21.4104167 25.6208333,21.23125 C28.3979167,18.4541667 29.9208333,14.6916667 29.9208333,10.75 C29.9208333,6.80833333 28.3979167,3.04583333 25.6208333,0.26875 C25.2625,-0.0895833333 24.725,-0.0895833333 24.3666667,0.26875 C24.0083333,0.627083333 24.0083333,1.16458333 24.3666667,1.52291667 C26.875,4.03125 28.21875,7.25625 28.21875,10.75 Z" id="Shape"></path>
                    <path d="M5.375,21.5 C5.64375,21.5 5.82291667,21.4104167 6.00208333,21.23125 C6.36041667,20.8729167 6.36041667,20.3354167 6.00208333,19.9770833 C0.895833333,14.8708333 0.895833333,6.62916667 6.00208333,1.6125 C6.36041667,1.25416667 6.36041667,0.716666667 6.00208333,0.358333333 C5.64375,7.07767178e-16 5.10625,7.07767178e-16 4.74791667,0.358333333 C-0.985416667,6.09166667 -0.985416667,15.4979167 4.74791667,21.3208333 C4.92708333,21.4104167 5.19583333,21.5 5.375,21.5 Z" id="Shape"></path>
                </g>
            </g>
        </g>
    </g>
</svg>