<?xml version="1.0" encoding="UTF-8"?>
<svg width="37px" height="41px" viewBox="0 0 37 41" version="1.1" xmlns="http://www.w3.org/2000/svg" xmlns:xlink="http://www.w3.org/1999/xlink">
    <!-- Generator: Sketch 44 (41411) - http://www.bohemiancoding.com/sketch -->
    <title>electricidad</title>
    <desc>Created with Sketch.</desc>
    <defs></defs>
    <g id="Symbols" stroke="none" stroke-width="1" fill="none" fill-rule="evenodd">
        <g id="electricidad---bot" transform="translate(-31.000000, -12.000000)" fill-rule="nonzero" fill="#9B9B9B">
            <g id="electricidad" transform="translate(31.000000, 12.000000)">
                <path d="M26.5166822,14.5775258 C26.2585463,14.2380087 26.1858072,13.7902911 26.3229543,13.3851074 L28.9088008,5.71956019 C29.1344164,5.05159774 29.852808,4.6950529 30.5133733,4.92319501 C31.1739386,5.15133711 31.526535,5.87777338 31.3009193,6.54573583 L29.3299484,12.3971035 L32.9812984,12.1458439 C33.4040643,12.1211002 33.8109746,12.3121732 34.0650587,12.6547457 C34.3191428,12.9973183 34.3866067,13.445827 34.2447413,13.8492989 L31.6588948,21.5148461 C31.5129471,21.946942 31.1501183,22.2674811 30.7070824,22.3557192 C30.2640465,22.4439574 29.8081112,22.2864892 29.5110231,21.9426314 C29.2139349,21.5987736 29.1208285,21.1207664 29.2667763,20.6886704 L31.2377472,14.84582 L27.5863972,15.0970796 C27.1665724,15.1145373 26.765634,14.919804 26.5166822,14.5775258 L26.5166822,14.5775258 Z M0.58662237,17.699107 L0.58662237,9.28829827 C0.58662237,8.58270414 1.15228503,8.01070707 1.85006527,8.01070707 L5.21924635,8.01070707 L5.21924635,1.82716567 C5.21924635,1.12157153 5.784909,0.549574468 6.48268925,0.549574468 C7.1804695,0.549574468 7.74613215,1.12157153 7.74613215,1.82716567 L7.74613215,8.01070707 L14.6782222,8.01070707 L14.6782222,1.82716567 C14.6782222,1.12157153 15.2438849,0.549574468 15.9416651,0.549574468 C16.6394454,0.549574468 17.205108,1.12157153 17.205108,1.82716567 L17.205108,8.01070707 L20.5742891,8.01070707 C21.2720693,8.01070707 21.837732,8.58270414 21.837732,9.28829827 L21.837732,17.699107 C21.8317145,22.9992398 17.7979756,27.4044621 12.572484,27.8176293 C12.572484,28.3201485 12.5472152,29.793637 12.572484,33.9585843 C12.6456281,36.3360719 14.5727486,38.2250917 16.9250448,38.2250917 C19.2773411,38.2250917 21.2044616,36.3360719 21.2776056,33.9585843 L21.2776056,33.3581165 C21.2822535,29.5136031 24.3656396,26.3995002 28.1675809,26.3995031 L34.9691152,26.3995031 C35.6668955,26.3995031 36.2325581,26.9715001 36.2325581,27.6770943 C36.2325581,28.3826884 35.6668955,28.9546855 34.9691152,28.9546855 L28.1675809,28.9546855 C25.7635273,28.9570331 23.815236,30.9271418 23.8129144,33.3581165 L23.8129144,33.9245152 C23.7276481,37.6997935 20.6802316,40.7172999 16.9457943,40.7242352 C13.211357,40.7311704 10.1530002,37.7250031 10.0540212,33.9500671 L10.0540212,27.8133707 C4.75035895,27.5026888 0.60222265,23.071129 0.58662237,17.699107 L0.58662237,17.699107 Z M3.11350818,17.699107 C3.11815008,21.8907423 6.47735415,25.2875635 10.6225705,25.2922574 L11.8144183,25.2922574 C15.9596346,25.2875635 19.3188387,21.8907423 19.3234806,17.699107 L19.3234806,10.5658895 L3.11350818,10.5658895 L3.11350818,17.699107 Z" id="Shape"></path>
            </g>
        </g>
    </g>
</svg>