<?xml version="1.0" encoding="UTF-8"?>
<svg width="46px" height="41px" viewBox="0 0 46 41" version="1.1" xmlns="http://www.w3.org/2000/svg" xmlns:xlink="http://www.w3.org/1999/xlink">
    <!-- Generator: Sketch 44 (41411) - http://www.bohemiancoding.com/sketch -->
    <title>impuestos</title>
    <desc>Created with Sketch.</desc>
    <defs></defs>
    <g id="Symbols" stroke="none" stroke-width="1" fill="none" fill-rule="evenodd">
        <g id="impuestos---bot" transform="translate(-26.000000, -12.000000)" fill="#9B9B9B">
            <g id="impuestos" transform="translate(26.000000, 12.000000)">
                <g id="noun_1013177_cc">
                    <path d="M29.8701299,8.31884058 C32.1796843,8.31884058 34.0519481,6.45660468 34.0519481,4.15942029 C34.0519481,1.8622359 32.1796843,0 29.8701299,0 C27.5605755,0 25.6883117,1.8622359 25.6883117,4.15942029 C25.6883117,6.45660468 27.5605755,8.31884058 29.8701299,8.31884058 L29.8701299,8.31884058 Z M29.8701299,2.37681159 C30.8599389,2.37681159 31.6623377,3.17491269 31.6623377,4.15942029 C31.6623377,5.14392789 30.8599389,5.94202899 29.8701299,5.94202899 C28.8803208,5.94202899 28.0779221,5.14392789 28.0779221,4.15942029 C28.0779221,3.17491269 28.8803208,2.37681159 29.8701299,2.37681159 Z" id="Shape" fill-rule="nonzero"></path>
                    <path d="M36.4415584,12.4782609 C36.4415584,14.7754453 38.3138222,16.6376812 40.6233766,16.6376812 C42.932931,16.6376812 44.8051948,14.7754453 44.8051948,12.4782609 C44.8051948,10.1810765 42.932931,8.31884058 40.6233766,8.31884058 C38.3138222,8.31884058 36.4415584,10.1810765 36.4415584,12.4782609 Z M42.4155844,12.4782609 C42.4155844,13.4627685 41.6131857,14.2608696 40.6233766,14.2608696 C39.6335676,14.2608696 38.8311688,13.4627685 38.8311688,12.4782609 C38.8311688,11.4937533 39.6335676,10.6956522 40.6233766,10.6956522 C41.6131857,10.6956522 42.4155844,11.4937533 42.4155844,12.4782609 Z" id="Shape" fill-rule="nonzero"></path>
                    <path d="M29.1592208,16.1088406 C29.4141976,16.2966946 29.7338289,16.3759525 30.0476247,16.3291352 C30.3614206,16.2823179 30.6436056,16.1132711 30.8319481,15.8592754 L40.9877922,2.1926087 C41.3804164,1.66425628 41.2680806,0.919361952 40.7368831,0.528840615 C40.2056856,0.138319278 39.4567801,0.250053414 39.0641558,0.778405797 L28.9083117,14.4450725 C28.7194461,14.6986836 28.6397614,15.0166029 28.6868308,15.3287181 C28.7339002,15.6408333 28.9038573,15.9215069 29.1592208,16.1088406 Z" id="Shape" fill-rule="nonzero"></path>
                    <path d="M10.7532468,10.1014493 C9.05662338,10.1014493 0.597402597,10.2737681 0.597402597,13.6666667 C0.597402597,17.0595652 9.05662338,17.2318841 10.7532468,17.2318841 C12.4498701,17.2318841 20.9090909,17.0595652 20.9090909,13.6666667 C20.9090909,10.2737681 12.4498701,10.1014493 10.7532468,10.1014493 Z M10.7532468,14.8550725 C6.7625974,14.8550725 4.18181818,14.1717391 3.24987013,13.6666667 C4.18181818,13.1615942 6.7625974,12.4782609 10.7532468,12.4782609 C14.7438961,12.4782609 17.3246753,13.1615942 18.2566234,13.6666667 C17.3246753,14.1717391 14.7438961,14.8550725 10.7532468,14.8550725 Z" id="Shape" fill-rule="nonzero"></path>
                    <path d="M19.7142857,16.3405797 C19.1223878,16.3330024 18.614143,16.7576415 18.5194805,17.3388406 C17.9937662,17.837971 15.2636364,18.7173913 10.7532468,18.7173913 C6.24285714,18.7173913 3.49480519,17.826087 2.98701299,17.3388406 C2.95286396,16.9142641 2.69358038,16.5400599 2.30683186,16.3571872 C1.92008333,16.1743145 1.46462617,16.2105559 1.11202666,16.4522597 C0.75942716,16.6939634 0.563253575,17.104409 0.597402597,17.5289855 C0.597402597,20.9218841 9.05662338,21.0942029 10.7532468,21.0942029 C12.4498701,21.0942029 20.9090909,20.9218841 20.9090909,17.5289855 C20.9090909,16.8726471 20.3741584,16.3405797 19.7142857,16.3405797 Z" id="Shape" fill-rule="nonzero"></path>
                    <path d="M19.7142857,20.5 C19.1223878,20.4924227 18.614143,20.9170617 18.5194805,21.4982609 C17.9937662,21.9973913 15.2636364,22.8768116 10.7532468,22.8768116 C6.24285714,22.8768116 3.49480519,21.9855072 2.98701299,21.4982609 C2.95286396,21.0736844 2.69358038,20.6994802 2.30683186,20.5166075 C1.92008333,20.3337348 1.46462617,20.3699762 1.11202666,20.61168 C0.75942716,20.8533837 0.563253575,21.2638293 0.597402597,21.6884058 C0.597402597,25.0813043 9.05662338,25.2536232 10.7532468,25.2536232 C12.4498701,25.2536232 20.9090909,25.0813043 20.9090909,21.6884058 C20.9090909,21.0320674 20.3741584,20.5 19.7142857,20.5 Z" id="Shape" fill-rule="nonzero"></path>
                    <path d="M19.7142857,24.6594203 C19.1223878,24.651843 18.614143,25.076482 18.5194805,25.6576812 C17.9937662,26.1568116 15.2636364,27.0362319 10.7532468,27.0362319 C6.24285714,27.0362319 3.49480519,26.1449275 2.98701299,25.6576812 C2.93422317,25.0013428 2.35649606,24.5118408 1.69662338,24.5643478 C1.03675069,24.6168549 0.544612782,25.1914877 0.597402597,25.8478261 C0.597402597,29.2407246 9.05662338,29.4130435 10.7532468,29.4130435 C12.4498701,29.4130435 20.9090909,29.2407246 20.9090909,25.8478261 C20.9090909,25.1914877 20.3741584,24.6594203 19.7142857,24.6594203 Z" id="Shape" fill-rule="nonzero"></path>
                    <path d="M19.7142857,28.8188406 C19.1223878,28.8112633 18.614143,29.2359023 18.5194805,29.8171014 C17.9937662,30.3162319 15.2636364,31.1956522 10.7532468,31.1956522 C6.24285714,31.1956522 3.49480519,30.3043478 2.98701299,29.8171014 C2.93422316,29.1607631 2.35649606,28.6712611 1.69662338,28.7237681 C1.0367507,28.7762752 0.544612793,29.350908 0.597402597,30.0072464 C0.597402597,33.4001449 9.05662338,33.5724638 10.7532468,33.5724638 C12.4498701,33.5724638 20.9090909,33.4001449 20.9090909,30.0072464 C20.9090909,29.350908 20.3741584,28.8188406 19.7142857,28.8188406 Z" id="Shape" fill-rule="nonzero"></path>
                    <path d="M19.7142857,32.9782609 C19.1223878,32.9706836 18.614143,33.3953226 18.5194805,33.9765217 C17.9937662,34.4756522 15.2636364,35.3550725 10.7532468,35.3550725 C6.24285714,35.3550725 3.49480519,34.4637681 2.98701299,33.9765217 C2.95286396,33.5519452 2.69358038,33.1777411 2.30683186,32.9948684 C1.92008333,32.8119956 1.46462617,32.8482371 1.11202666,33.0899408 C0.75942716,33.3316446 0.563253575,33.7420902 0.597402597,34.1666667 C0.597402597,37.5595652 9.05662338,37.7318841 10.7532468,37.7318841 C12.4498701,37.7318841 20.9090909,37.5595652 20.9090909,34.1666667 C20.9090909,33.5103283 20.3741584,32.9782609 19.7142857,32.9782609 Z" id="Shape" fill-rule="nonzero"></path>
                    <path d="M35.8441558,28.5217391 C37.5407792,28.5217391 46,28.3494203 46,24.9565217 C46,21.5636232 37.5407792,21.3913043 35.8441558,21.3913043 C34.1475325,21.3913043 25.6883117,21.5636232 25.6883117,24.9565217 C25.6883117,28.3494203 34.1475325,28.5217391 35.8441558,28.5217391 Z M35.8441558,23.7681159 C39.8348052,23.7681159 42.4155844,24.4514493 43.3475325,24.9565217 C42.4155844,25.4615942 39.8348052,26.1449275 35.8441558,26.1449275 C31.8535065,26.1449275 29.2727273,25.4615942 28.3407792,24.9565217 C29.2727273,24.4514493 31.8535065,23.7681159 35.8441558,23.7681159 Z" id="Shape" fill-rule="nonzero"></path>
                    <path d="M44.8051948,27.6304348 C44.2132969,27.6228575 43.7050521,28.0474965 43.6103896,28.6286957 C43.0846753,29.1278261 40.3545455,30.0072464 35.8441558,30.0072464 C31.3337662,30.0072464 28.5857143,29.115942 28.0779221,28.6286957 C28.0251323,27.9723573 27.4474052,27.4828552 26.7875325,27.5353623 C26.1276598,27.5878694 25.6355219,28.1625022 25.6883117,28.8188406 C25.6883117,32.2117391 34.1475325,32.384058 35.8441558,32.384058 C37.5407792,32.384058 46,32.2117391 46,28.8188406 C46,28.1625022 45.4650675,27.6304348 44.8051948,27.6304348 Z" id="Shape" fill-rule="nonzero"></path>
                    <path d="M44.8051948,31.7898551 C44.2132969,31.7822778 43.7050521,32.2069168 43.6103896,32.7881159 C43.0846753,33.2872464 40.3545455,34.1666667 35.8441558,34.1666667 C31.3337662,34.1666667 28.5857143,33.2753623 28.0779221,32.7881159 C28.0251323,32.1317775 27.4474052,31.6422755 26.7875325,31.6947826 C26.1276598,31.7472897 25.6355219,32.3219225 25.6883117,32.9782609 C25.6883117,36.3711594 34.1475325,36.5434783 35.8441558,36.5434783 C37.5407792,36.5434783 46,36.3711594 46,32.9782609 C46,32.3219225 45.4650675,31.7898551 44.8051948,31.7898551 Z" id="Shape" fill-rule="nonzero"></path>
                    <path d="M44.8051948,35.9492754 C44.2132969,35.9416981 43.7050521,36.3663371 43.6103896,36.9475362 C43.0846753,37.4466667 40.3545455,38.326087 35.8441558,38.326087 C31.3337662,38.326087 28.5857143,37.4347826 28.0779221,36.9475362 C28.0251323,36.2911978 27.4474052,35.8016958 26.7875325,35.8542029 C26.1276598,35.90671 25.6355219,36.4813428 25.6883117,37.1376812 C25.6883117,40.5305797 34.1475325,40.7028986 35.8441558,40.7028986 C37.5407792,40.7028986 46,40.5305797 46,37.1376812 C46,36.4813428 45.4650675,35.9492754 44.8051948,35.9492754 Z" id="Shape" fill-rule="nonzero"></path>
                </g>
            </g>
        </g>
    </g>
</svg>