<?xml version="1.0" encoding="UTF-8"?>
<svg width="48px" height="41px" viewBox="0 0 48 41" version="1.1" xmlns="http://www.w3.org/2000/svg" xmlns:xlink="http://www.w3.org/1999/xlink">
    <!-- Generator: Sketch 44 (41411) - http://www.bohemiancoding.com/sketch -->
    <title>recaudaciones</title>
    <desc>Created with Sketch.</desc>
    <defs></defs>
    <g id="Symbols" stroke="none" stroke-width="1" fill="none" fill-rule="evenodd">
        <g id="recaudaciones---bot" transform="translate(-25.000000, -12.000000)" fill-rule="nonzero" fill="#9B9B9B">
            <g id="recaudaciones" transform="translate(24.000000, 12.000000)">
                <g id="Group">
                    <g id="Shape">
                        <g transform="translate(0.465909, 0.000000)">
                            <path d="M31.3281561,36.1792969 L41.3706242,36.1792969 C55.4403508,36.1792969 43.3805851,12.0597656 35.3407414,8.03984375 L27.3008976,8.03984375 C25.2786257,9.05097968 23.0020215,11.333777 20.9508789,14.1845381 C21.4628457,14.5054317 21.9973138,14.9202858 22.5426884,15.413542 C24.2890234,12.9720234 26.1770813,11.0077048 27.8142925,10.0473375 L34.8416828,10.0557688 C38.2346751,12.0564014 42.6982062,18.3546659 44.7473865,24.2745205 C46.9880856,30.7476508 45.9245889,34.1693359 41.3706242,34.1693359 L31.8003823,34.1693359 C31.7612572,34.9515325 31.6042542,35.622326 31.3281561,36.1792969 Z"></path>
                            <path d="M26.9831604,4.15218398 C26.3202361,2.82633564 26.8235683,2.00996094 28.3177753,2.00996094 L34.3238638,2.00996094 C35.7967969,2.00996094 36.3121989,2.84474356 35.6584786,4.15218398 L33.4368791,8.59538329 L35.2346428,9.49426515 L37.4562424,5.05106582 C38.7779555,2.40763989 37.2914577,0 34.3238638,0 L28.3177753,0 C25.3282273,0 23.854783,2.38983877 25.1853967,5.05106582 L27.4069963,9.49426515 L29.20476,8.59538329 L26.9831604,4.15218398 Z"></path>
                            <path d="M21.2710148,12.0597656 C29.3108586,16.0796875 41.3706242,40.1992188 27.3008976,40.1992188 L7.20128827,40.1992188 C-6.86843829,40.1992188 5.19132734,16.0796875 13.2311711,12.0597656 L21.2710148,12.0597656 Z M13.7445659,14.0672594 C10.3498208,16.0585736 5.87659369,22.3662465 3.8245259,28.2944424 C1.58382693,34.7675727 2.64732364,38.1892578 7.20128827,38.1892578 L27.3008976,38.1892578 C31.8548623,38.1892578 32.918359,34.7675727 30.67766,28.2944424 C28.6284797,22.3745879 24.1649486,16.0763233 20.7719562,14.0756907 L13.7445659,14.0672594 Z"></path>
                            <path d="M12.9134337,8.17210585 C12.2505096,6.84625751 12.7538417,6.02988281 14.2480486,6.02988281 L20.2541372,6.02988281 C21.7270703,6.02988281 22.2424724,6.86466544 21.5887521,8.17210585 L19.3671525,12.6153052 L21.1649162,13.514187 L23.3865158,9.0709877 C24.7082289,6.42756176 23.2217312,4.01992187 20.2541372,4.01992187 L14.2480486,4.01992187 C11.2585008,4.01992187 9.78505652,6.40976065 11.11567,9.0709877 L13.3372697,13.514187 L15.1350334,12.6153052 L12.9134337,8.17210585 Z"></path>
                            <path d="M18.2560734,19.8596114 L18.2560734,18.0896484 L16.2461125,18.0896484 L16.2461125,19.9545558 C14.2672331,20.4040427 12.9472258,21.9154376 12.9472258,23.7464136 C12.9472258,28.0734128 19.7667362,27.4153898 19.7667362,30.4662235 C19.7667362,31.8022094 18.6500911,32.5399927 17.3340453,32.5399927 C15.240336,32.5399927 13.7448293,31.0245458 13.7448293,31.0245458 L12.6281843,32.5200526 C12.6281843,32.5200526 13.9146963,33.944405 16.2461125,34.2964971 L16.2461125,36.1792969 L18.2560734,36.1792969 L18.2560734,34.2983963 C20.4660452,33.9353278 21.760745,32.3172898 21.760745,30.4064032 C21.760745,25.8401229 14.9412346,26.6177863 14.9412346,23.7065333 C14.9412346,22.5898885 15.9980593,21.6527042 17.493566,21.6527042 C19.2881739,21.6527042 20.5842797,22.8690497 20.5842797,22.8690497 L21.4815838,21.2339624 C21.4815838,21.2339624 20.3727518,20.0929904 18.2560734,19.8596114 Z"></path>
                        </g>
                    </g>
                </g>
            </g>
        </g>
    </g>
</svg>