<?xml version="1.0" encoding="UTF-8"?>
<svg width="50px" height="41px" viewBox="0 0 50 41" version="1.1" xmlns="http://www.w3.org/2000/svg" xmlns:xlink="http://www.w3.org/1999/xlink">
    <!-- Generator: Sketch 44 (41411) - http://www.bohemiancoding.com/sketch -->
    <title>transportes</title>
    <desc>Created with Sketch.</desc>
    <defs></defs>
    <g id="Symbols" stroke="none" stroke-width="1" fill="none" fill-rule="evenodd">
        <g id="transportes----bot" transform="translate(-24.000000, -12.000000)" fill-rule="nonzero" fill="#9B9B9B">
            <g id="transportes" transform="translate(24.000000, 12.000000)">
                <path d="M2.8462622,8.39209528 L3.58659051,8.39209528 C4.1786782,8.40103005 4.7607098,8.54653795 5.28734472,8.81728383 C5.95899372,7.10694988 6.76868961,5.4540996 7.70841837,3.87509217 C8.92802889,2.22240525 10.7688358,1.138515 12.8056788,0.873761203 C14.9964154,0.535893495 17.2125045,0.390274347 19.4286158,0.438568213 C21.6463906,0.390161362 23.8641506,0.535780322 26.056555,0.873761203 C28.0915886,1.13981114 29.9303649,2.22356927 31.1488132,3.87509217 C31.7592486,4.83963998 32.2911953,5.85167711 32.7395186,6.90143423 C32.9403377,7.39869456 32.713351,7.96585714 32.2249102,8.18726572 C31.7364695,8.4086743 31.1603231,8.20556931 30.9187112,7.72680025 C30.5251086,6.78294228 30.0550017,5.87284214 29.5130878,5.0055935 C28.6042393,3.7840451 27.225639,2.99860572 25.711402,2.83963299 C23.6328043,2.52307788 21.5306557,2.38750939 19.4286158,2.43445331 C17.3282422,2.38774873 15.2277755,2.5233167 13.1508319,2.83963299 C11.6375793,3.0011754 10.2608964,3.78836956 9.35414818,5.01059572 C8.3028626,6.82707648 7.40437275,8.72779243 6.66795697,10.6931157 C6.54424123,10.9986454 6.27796554,11.2236278 5.9560707,11.2946046 C5.63417586,11.3655814 5.29797602,11.273443 5.05724268,11.0482732 C4.66437411,10.6337946 4.1269452,10.3865773 3.5565772,10.3579671 L2.89128217,10.3579671 C2.64529792,10.3603198 2.41098686,10.4632134 2.24280329,10.6427352 C2.07461973,10.822257 1.98720964,11.0627736 2.00088731,11.3083885 L2.00088731,12.6139675 C2.02371342,13.131884 2.43839446,13.5465651 2.956311,13.5693912 L3.89172582,13.5693912 C4.27066592,13.5693912 4.61708266,13.7834885 4.78654983,14.1224228 C4.956017,14.4613572 4.91944481,14.866949 4.69208075,15.170101 C4.60537563,15.2868195 4.52200532,15.4035379 4.44196983,15.5202563 C3.64568289,16.7277852 3.24048968,18.1512009 3.28145519,19.5970642 L3.28145519,28.8211547 C3.28418943,29.3283452 3.69467284,29.7388286 4.20186335,29.7415629 L6.70297249,29.7415629 C7.21129989,29.7415629 7.62338066,29.3294821 7.62338066,28.8211547 L7.62338066,27.3755136 C7.62338066,26.8229839 8.07129454,26.37507 8.62382431,26.37507 C9.17635409,26.37507 9.62426797,26.8229839 9.62426797,27.3755136 L9.62426797,28.8211547 C9.62151434,30.4333997 8.31521747,31.7396966 6.70297249,31.7424502 L4.20186335,31.7424502 C2.58961838,31.7396966 1.28332151,30.4333997 1.28056788,28.8211547 L1.28056788,19.6270775 C1.2482043,18.1887431 1.55494579,16.7629949 2.17596495,15.4652319 C0.911725416,15.1143138 0.0273008318,13.9757442 0,12.6639897 L0,11.2383575 C0.0369466906,9.68197094 1.28987566,8.42904197 2.8462622,8.39209528 L2.8462622,8.39209528 Z M49.0217391,20.1623149 L49.0217391,21.5879471 C48.995736,22.896904 48.1160586,24.034593 46.8557786,24.3891893 C47.4786222,25.693443 47.7853769,27.1261071 47.7511757,28.5710438 L47.7511757,37.7401099 C47.7484221,39.3523549 46.4421252,40.6586518 44.8298802,40.6614054 L42.3287711,40.6614054 C40.7165261,40.6586518 39.4102292,39.3523549 39.4074756,37.7401099 L39.4074756,37.2949125 L19.7637644,37.2949125 L19.7637644,37.7401099 C19.7610108,39.3523549 18.4547139,40.6586518 16.8424689,40.6614054 L14.3413598,40.6614054 C12.7291148,40.6586518 11.422818,39.3523549 11.4200643,37.7401099 L11.4200643,28.5460327 C11.3875127,27.1076804 11.6942635,25.681889 12.3154614,24.3841871 C11.0551814,24.0295908 10.175504,22.8919018 10.1495009,21.5829449 L10.1495009,21.5829449 L10.1495009,20.1573127 C10.1892854,18.5990966 11.4473635,17.3476284 13.0057675,17.3160527 L13.7460958,17.3160527 C14.3381835,17.3249875 14.9202151,17.4704954 15.44685,17.7412412 C16.1183774,16.0308537 16.928078,14.3779937 17.8679237,12.7990496 C19.5386646,10.3979848 22.114807,9.94778516 22.9651841,9.79771861 C25.1559207,9.4598509 27.3720098,9.31423176 29.5881211,9.36252562 C31.8058965,9.3140932 34.0236587,9.45971231 36.2160603,9.79771861 C37.0614352,9.94778516 39.6425799,10.3979848 41.3083185,12.7990496 C42.2483204,14.3779092 43.0580273,16.0307821 43.7293922,17.7412412 C44.251052,17.4715459 44.8279729,17.3260317 45.4151398,17.3160527 L46.1704747,17.3160527 C47.7288142,17.3503692 48.9846863,18.6040381 49.0217391,20.1623149 Z M47.0208518,20.2323459 C47.024894,19.9900858 46.9311285,19.7564204 46.7607449,19.584154 C46.5903612,19.4118877 46.3577402,19.3155602 46.1154503,19.31694 L45.4351486,19.31694 C44.8788733,19.3555246 44.3574644,19.6019438 43.9745009,20.0072461 C43.7337675,20.232416 43.3975677,20.3245544 43.0756729,20.2535776 C42.753778,20.1826007 42.4875023,19.9576183 42.3637866,19.6520886 C41.6264323,17.6726321 40.7245467,15.758426 39.6675909,13.9295509 C38.7608427,12.7073248 37.3841598,11.9201306 35.8709073,11.7585882 C33.7923123,11.442008 31.6901615,11.3064394 29.5881211,11.3534085 C27.4860802,11.3064142 25.3839272,11.441983 23.305335,11.7585882 C21.7918896,11.9195345 20.4149836,12.7068563 19.5086513,13.9295509 C18.4560716,15.7540402 17.5575578,17.663173 16.8224601,19.637082 C16.6987443,19.9426117 16.4324687,20.1675941 16.1105738,20.2385709 C15.788679,20.3095477 15.4524791,20.2174093 15.2117458,19.9922395 C14.8188772,19.5777609 14.2814483,19.3305436 13.7110803,19.3019333 L13.0457853,19.3019333 C12.8034954,19.3005535 12.5708744,19.396881 12.4004907,19.5691474 C12.2301071,19.7414137 12.1363416,19.9750792 12.1403838,20.2173393 L12.1403838,21.5229183 C12.1633994,22.0426735 12.5809413,22.4580407 13.1008097,22.4783419 L14.0162156,22.4783419 C14.3965411,22.4756951 14.7454735,22.6889315 14.9166149,23.028586 C15.0870798,23.368361 15.0502534,23.77539 14.8215728,24.0790518 C14.736535,24.1941028 14.6514973,24.3091538 14.5714618,24.4292071 C13.7745778,25.6364619 13.3693298,27.0600702 13.4109472,28.506015 L13.4109472,37.7401099 C13.4109472,38.2484373 13.823028,38.6605181 14.3313554,38.6605181 L16.8324645,38.6605181 C17.3407919,38.6605181 17.7528727,38.2484373 17.7528727,37.7401099 L17.7528727,36.2994711 C17.7528727,35.7469413 18.2007866,35.2990274 18.7533163,35.2990274 L40.4129215,35.2990274 C40.9654512,35.2990274 41.4133651,35.7469413 41.4133651,36.2994711 L41.4133651,37.7451121 C41.4133651,37.9892196 41.5103364,38.223329 41.6829464,38.395939 C41.8555565,38.568549 42.0896659,38.6655203 42.3337733,38.6655203 L44.8348824,38.6655203 C45.0789899,38.6655203 45.3130993,38.568549 45.4857093,38.395939 C45.6583193,38.223329 45.7552906,37.9892196 45.7552906,37.7451121 L45.7552906,28.5510349 C45.7990913,27.0985637 45.3938327,25.6679312 44.594776,24.4542182 C44.5147405,24.3341649 44.4297028,24.2191139 44.344665,24.1040629 C44.117301,23.8009108 44.0807288,23.395319 44.250196,23.0563847 C44.4196631,22.7174504 44.7660799,22.503353 45.14502,22.503353 L46.0654281,22.503353 C46.5870333,22.4801597 47.003093,22.0597434 47.0208518,21.5379249 L47.0208518,20.2323459 Z M42.8189885,27.1053939 L42.8189885,28.0308042 C42.8189885,29.4121287 41.6992038,30.5319134 40.3178793,30.5319134 L36.8163265,30.5319134 C35.5710831,30.515016 34.5279827,29.5845728 34.3694907,28.3493412 C34.2109986,27.1141097 34.9854072,25.9504626 36.186047,25.619735 L39.6875998,24.6943246 C40.4356439,24.5011784 41.2309633,24.6645728 41.8422705,25.136991 C42.4535777,25.6094092 42.8122517,26.3378209 42.8139862,27.1103961 L42.8189885,27.1053939 Z M40.8181012,27.1053939 C40.8181012,26.829129 40.5941442,26.605172 40.3178793,26.605172 C40.2763583,26.5999409 40.2343449,26.5999409 40.1928239,26.605172 L36.6912711,27.5305824 C36.4620929,27.6045687 36.3181642,27.8313533 36.3487885,28.0702231 C36.3794128,28.3090929 36.5758962,28.4922349 36.8163265,28.506015 L40.3178793,28.506015 C40.5941442,28.506015 40.8181012,28.282058 40.8181012,28.0057931 L40.8181012,27.1053939 Z M24.8710293,28.025802 C24.8710293,29.4071265 23.7512446,30.5269112 22.3699201,30.5269112 L18.8683673,30.5269112 C17.4870429,30.5269112 16.3672582,29.4071265 16.3672582,28.025802 L16.3672582,27.1053939 C16.3708769,26.3311639 16.7328548,25.6022587 17.3475158,25.1314754 C17.9621768,24.6606921 18.7602153,24.5011134 19.5086513,24.6993269 L23.0102041,25.6247372 C24.1011421,25.9136177 24.8634876,26.8972894 24.8710293,28.025802 Z M22.870142,28.025802 C22.8781073,27.7932645 22.7246864,27.585939 22.4999778,27.5255802 L18.998425,26.6001698 C18.9552572,26.59451 18.9115352,26.59451 18.8683673,26.6001698 C18.5921025,26.6001698 18.3681455,26.8241268 18.3681455,27.1003916 L18.3681455,28.025802 C18.3681455,28.3020669 18.5921025,28.5260238 18.8683673,28.5260238 L22.3699201,28.5260238 C22.646185,28.5260238 22.870142,28.3020669 22.870142,28.025802 Z" id="Shape"></path>
            </g>
        </g>
    </g>
</svg>